**ABCDEFGHIJKLMNOPQRSTUVWXYZabcdefghijklmnopqrstuvwxyz**************************
**PARASOLID !"#$%&'()*+,-./:;<=>?@[\]^_`{|}~0123456789**************************
**PART1;
MC=AMD64;
MC_MODEL=Intel64 Family 6 Model 58 Stepping 9, GenuineIntel;
MC_ID=unknown;
OS=Windows_NT;
OS_RELEASE=unknown;
FRU=Parasolid Version 28.0, build 209,  1-25-2016;
APPL=SOLIDWORKS 2016-2016095;
SITE=;
USER=unknown;
FORMAT=text;
GUISE=transmit;
KEY=body_link_nut;
FILE=body_link_nut.x_t;
DATE=Fri Jul 15 11:06:29 2016;
**PART2;
SCH=SCH_2800209_28002;
USFLD_SIZE=0;
**PART3;
**END_OF_HEADER*****************************************************************
T51 : TRANSMIT FILE created by modeller version 280020917 SCH_2500000_250010 12
 1 2082 2 3 0 0 0 0 1e3 1e-8 0 4 0 1 0 1 1 5 6 7 8 9 10 11 0 0 0 0 0 0 81 2 2 11
27 12 1 0 0 0 0 13 0 70 3 0 4 T1 0 0 3 20 1 14 14 13 5 29 0 1 0 15 0 0 16 0 54 6
 1759 0 17 18 0 19 +0 0 .0425 0 0 1 .0295 5e-4 1 0 0 31 7 1521 0 10 20 0 0 -0 0
 .0425 0 0 1 1 0 0 .03 29 8 1440 0 11 21 0 -.0345 .01028348190060154 .0295 19 9
 7 0 1 16 0 22 V0 16 10 1519 0 ?23 0 24 7 0 0 1 18 11 1438 0 25 0 26 8 ?1 17 25
 0 27 28 29 11 30 31 0 32 +18 26 1435 0 33 11 34 21 ?1 17 33 0 35 36 37 26 38 39
 0 40 -18 34 1432 0 30 26 41 42 ?1 29 21 1437 0 26 42 8 -.0345 .0102834819006015
4 5e-4 29 42 1434 0 34 43 21 -.0345 .00836660026534074 .03 29 43 1431 0 41 44 42
 -.0345 -.00836660026534074 .03 18 41 1429 0 45 34 46 43 ?1 29 44 1416 0 46 47 4
3 -.0345 -.01028348190060154 5e-4 18 46 1414 0 48 41 49 44 ?1 29 47 1413 0 49 50
 44 -.0345 -.01028348190060154 .0295 18 49 1411 0 51 46 52 47 ?1 29 50 1374 0 52
 53 47 -.0268328157299975 -.024 .0295 18 52 1372 0 54 49 55 50 ?1 29 53 1371 0 5
5 56 50 -.0268328157299975 -.024 5e-4 18 55 1369 0 57 52 58 53 ?1 29 56 1368 0 5
8 59 53 -.02615817271905665 -.024 .03 18 58 1366 0 60 55 61 56 ?1 29 59 1365 0 6
1 62 56 -.018 -.024 .0425 18 61 1363 0 63 58 64 59 ?1 29 62 1362 0 64 65 59 -.01
715371679840845 -.024 .043 18 64 1360 0 66 61 67 62 ?1 29 65 1359 0 67 68 62 .01
715371679840845 -.024 .043 18 67 1357 0 69 64 70 65 ?1 29 68 1356 0 70 71 65 .01
8 -.024 .0425 18 70 1354 0 72 67 73 68 ?1 29 71 1353 0 73 74 68 .026158172719056
65 -.024 .03 18 73 1351 0 75 70 76 71 ?1 29 74 1338 0 76 77 71 .0268328157299975
 -.024 5e-4 18 76 1336 0 78 73 79 74 ?1 29 77 1335 0 79 80 74 .0268328157299975
 -.024 .0295 18 79 1333 0 81 76 82 77 ?1 29 80 1308 0 82 83 77 .0345 -.010283481
90060152 .0295 18 82 1306 0 84 79 85 80 ?1 29 83 1305 0 85 86 80 .0345 -.0102834
8190060152 5e-4 18 85 1303 0 87 82 88 83 ?1 29 86 1302 0 88 89 83 .0345 -.008366
6002653407 .03 18 88 1300 0 90 85 91 86 ?1 29 89 1299 0 91 92 86 .0345 .00836660
02653407 .03 18 91 1297 0 93 88 94 89 ?1 29 92 1272 0 94 95 89 .0345 -.008366600
2653407 0 18 94 1270 0 96 91 97 92 ?1 29 95 1269 0 97 98 92 .0345 .0083666002653
407 0 18 97 1267 0 99 94 100 95 ?1 29 98 1266 0 100 101 95 -.0345 .0083666002653
4074 0 18 100 1264 0 38 97 102 98 ?1 29 101 1263 0 102 103 98 -.0345 -.008366600
26534074 0 18 102 1261 0 104 100 105 101 ?1 29 103 1260 0 105 106 101 .026158172
71905665 -.024 0 18 105 1258 0 107 102 108 103 ?1 29 106 1257 0 108 109 103 -.02
615817271905665 -.024 0 18 108 1255 0 110 105 111 106 ?1 29 109 1218 0 111 112 1
06 -.02683281572999745 .024 5e-4 18 111 1216 0 113 108 114 109 ?1 29 112 1215 0
 114 115 109 -.02683281572999745 .024 .0295 18 114 1213 0 116 111 117 112 ?1 29
 115 1212 0 117 118 112 -.02615817271905665 .024 0 18 117 1210 0 119 114 120 115
 ?1 29 118 1209 0 120 121 115 .02615817271905665 .024 0 18 120 1207 0 122 117 12
3 118 ?1 29 121 1206 0 123 124 118 .02615817271905665 .024 .03 18 123 1204 0 125
 120 126 121 ?1 29 124 1203 0 126 127 121 .018 .024 .0425 18 126 1201 0 128 123
 129 124 ?1 29 127 1200 0 129 130 124 .01715371679840845 .024 .043 18 129 1198 0
 131 126 132 127 ?1 29 130 1197 0 132 133 127 -.01715371679840845 .024 .043 18 1
32 1195 0 134 129 135 130 ?1 29 133 1194 0 135 136 130 -.018 .024 .0425 18 135 1
192 0 23 132 137 133 ?1 29 136 1191 0 137 138 133 -.02615817271905665 .024 .03 1
8 137 1189 0 139 135 140 136 ?1 29 138 1176 0 140 141 136 .0345 .010283481900601
52 5e-4 18 140 1174 0 142 137 143 138 ?1 29 141 1173 0 143 144 138 .0345 .010283
48190060152 .0295 18 143 1171 0 145 140 146 141 ?1 29 144 1170 0 146 147 141 .02
683281572999745 .024 .0295 18 146 1168 0 148 143 149 144 ?1 29 147 1167 0 149 15
0 144 .02683281572999745 .024 5e-4 18 149 1165 0 151 146 152 147 ?1 29 150 901 0
 152 153 147 .018 -.024 .03 18 152 758 0 154 149 155 150 ?1 29 153 903 0 155 156
 150 -.018 -.024 .03 18 155 756 0 157 152 158 153 ?1 29 156 909 0 158 159 153 -.
018 .024 .03 18 158 763 0 160 155 161 156 ?1 29 159 911 0 161 0 156 .018 .024 .0
3 18 161 761 0 162 158 0 159 ?1 17 162 0 163 164 128 161 165 166 0 167 -15 163 8
06 0 168 169 0 17 164 0 163 148 162 123 167 170 0 0 +17 128 0 163 162 171 126 13
1 172 0 165 +17 165 0 173 72 174 126 162 166 0 175 +16 166 669 0 ?165 170 176 17
7 0 0 1 17 167 0 178 179 180 161 164 170 0 174 -15 178 635 0 181 182 0 17 179 0
 178 183 167 152 174 184 0 0 -17 180 0 178 167 181 123 185 186 0 164 +16 170 750
 0 ?164 187 166 188 189 189 1 17 174 0 173 165 154 161 179 184 0 0 +15 173 576 0
 165 190 0 17 154 0 173 174 72 152 191 192 0 193 +16 184 568 0 ?174 194 195 196
 194 194 1 16 194 562 0 ?197 198 184 196 184 184 1 16 195 1412 0 ?199 184 200 20
1 0 0 1 31 196 82 0 184 201 202 0 +0 0 .03 0 0 1 1 0 0 .03 30 201 323 0 195 203
 196 0 +-.0345 -.01028348190060154 .03 0 0 -1 30 202 107 0 198 196 204 0 +.0345
 0 0 0 -1 0 16 198 1268 0 ?205 206 194 202 0 0 1 30 204 112 0 206 202 207 0 +-.0
345 0 0 0 1 0 16 206 1262 0 ?208 209 198 204 0 0 1 38 207 461 0 210 204 211 0 +2
12 213 214 215 215 16 210 487 0 ?216 217 218 207 0 0 1 38 211 467 0 217 207 219
 0 +212 213 220 221 221 51 212 440 0 222 213 223 224 +0 0 0 0 0 1 .018 1 0 0 51
 213 514 0 225 226 212 227 +.0345 0 .015 -1 0 0 .0075 0 0 1 40 21 214 0 1 21 .00
0483505601838607 .366620418957156 ??-.018 0 .0225 -.0178435691112934 .0023679192
06919065 .02211638662732035 -.0174371236938185 .0044661747935424 .02102522055310
23 -.0169088025612941 .00617190375355729 .0192611740232975 -.0164732905483674 .0
0725470182082413 .0169024461860802 -.01637365285715695 .00747686378860259 .01441
135079488434 -.0166055757150959 .00694657146873317 .0121724312864614 -.017056832
248205 .00575017161975142 .01018486486758624 -.01758533695111795 .00384134407670
62 .00855841046911911 -.01794420968371535 .001416099864718694 .00763490250077138
 -.0179701390586353 -.00103638902604693 .0075719519531246 -.0177032977107805 -.0
0325472735624264 .00824302213733641 -.01723442560676465 -.00519370522891841 .009
58932296333392 -.01670872476328755 -.0066946633062986 .0116189523494486 -.016387
7758453544 -.00744585809980412 .0141004461341413 -.01643249109264265 -.007346647
97647333 .01650889479745285 -.0167638267548065 -.00655546432640997 .018643609126
2876 -.0172687107700191 -.00507854588848289 .0205189103687751 -.0177620457922298
5 -.00291714402708017 .0219094334590667 -.01799498429946535 -.000424900061186495
5 .02248795432264405 -.018 -1205206401483924e-34 .0225 41 1 215 H-.018 -12052064
01483924e-34 .0225 14 225 491 228 ?169 229 230 5 213 -229 229 169 229 22 50 226
 860 0 231 232 213 233 +.0430236220472441 -.024 .043 -1612810259509915e-31 1 0 -
1 -1612810259509915e-31 0 141 227 207 234 234 213 141 234 211 227 227 213 14 231
 795 235 ?236 169 237 5 226 -0 0 236 169 22 50 232 862 0 169 238 226 239 +.04302
36220472441 .024 .043 1612810259509915e-31 -1 0 1 1612810259509915e-31 0 141 233
 240 241 242 226 38 240 1377 0 243 244 245 0 +6 226 246 247 248 141 241 249 250
 233 226 141 242 245 233 251 226 38 245 1383 0 252 240 253 0 +18 226 254 255 256
 141 251 253 242 257 226 38 253 1389 0 258 245 259 0 +260 226 261 262 263 141 25
7 259 251 250 226 38 259 1395 0 264 253 265 0 +266 226 267 268 269 141 250 265 2
57 241 226 38 265 1401 0 270 259 249 0 +271 226 272 273 274 16 270 1399 0 ?110 2
75 264 265 0 0 1 38 249 1407 0 275 265 276 0 +277 226 278 279 280 54 271 1612 0
 281 277 282 283 +0 0 5e-4 0 0 1 .0355 5e-4 1 0 0 40 6 272 0 1 6 419281878771117
5e-20 .359988793900522 ??-.0268328157299975 -.024 5e-4 -.0268078941482979 -.024
 .000364993668438976 -.0267399794675499 -.024 .0002463032525744715 -.02660172302
697775 -.024 .0001226933677936086 -.0263752315178056 -.024 2637293177166355e-20
 -.02615817271905665 -.024 4105992053380395e-34 41 1 273 L-.0268328157299975 -.0
24 5e-4 41 1 274 L-.02615817271905665 -.024 4105992053380395e-34 14 281 1600 284
 ?285 286 287 5 271 +0 0 285 286 22 54 277 1591 0 286 288 271 289 +0 0 5e-4 0 0
 1 .0355 5e-4 1 0 0 54 282 1633 0 285 271 290 291 +0 0 5e-4 0 0 1 .0355 5e-4 1 0
 0 141 283 265 292 292 271 141 292 293 283 283 271 38 293 1461 0 294 295 296 0 +
271 297 298 299 300 16 294 1459 0 ?48 301 39 293 0 0 1 38 295 1455 0 39 302 293
 0 +282 297 303 304 305 31 296 1467 0 301 293 306 0 -0 0 .0295 0 0 1 1 0 0 .036
 50 297 318 0 307 223 308 309 +-.0345 -.0595201079865015 .068 1 0 0 0 0 -1 40 9
 298 0 1 9 830960934562344e-19 .336377922419645 ??-.0345 -.00836660026534074 0 -
.0345 -.00936660026534074 663488496022544e-19 -.0345 -.00968608497502241 .000127
8528198155228 -.0345 -.00990480906635119 .0001917350831161405 -.0345 -.010118256
82330084 .000288686283844816 -.0345 -.01019726939908168 .0003453063999632945 -.0
345 -.010260832895716 .000419866222028042 -.0345 -.0102805106325042 .00047088099
0872564 -.0345 -.01028348190060202 .000499999999999905 41 1 299 L-.0345 -.008366
60026534074 0 41 1 300 L-.0345 -.01028348190060202 .000499999999999905 14 307 26
2 310 ?222 311 312 5 297 -0 0 222 311 22 50 223 320 0 311 212 297 313 +.0345 -.0
595201079865015 .068 -1 0 0 0 0 1 50 308 81 0 314 297 315 0 +0 0 .043 0 0 1 1 0
 0 141 309 316 317 318 297 38 316 1443 0 319 320 302 0 +260 297 321 322 323 141
 317 293 324 309 297 141 318 302 309 324 297 38 302 1449 0 31 316 295 0 +325 297
 326 327 328 141 324 295 318 317 297 16 31 1447 0 ?25 39 319 302 0 0 1 54 325 16
96 0 329 266 260 330 +0 0 .0295 0 0 1 .0355 5e-4 1 0 0 40 9 326 0 1 9 8309609345
62345e-19 .3363779224196155 ??-.0345 .00836660026534074 .03 -.0345 .009366600265
34074 .02993365115039775 -.0345 .00968608497502241 .0298721471801845 -.0345 .009
90480906635119 .02980826491688385 -.0345 .01011825682330086 .0297113137161552 -.
0345 .01019726939908168 .0296546936000367 -.0345 .01026083289571598 .02958013377
797195 -.0345 .0102805106325042 .02952911900912745 -.0345 .01028348190060202 .02
95 41 1 327 L-.0345 .00836660026534074 .03 41 1 328 L-.0345 .01028348190060202 .
0295 14 329 1684 331 ?332 333 334 5 325 +0 0 332 333 22 54 266 1675 0 333 290 32
5 335 +0 0 .0295 0 0 1 .0355 5e-4 1 0 0 54 260 1717 0 332 325 18 336 +0 0 .0295
 0 0 1 .0355 5e-4 1 0 0 141 330 337 338 338 325 38 337 1233 0 339 340 341 0 +325
 232 342 343 344 141 338 302 330 330 325 16 339 1231 0 ?139 345 172 337 0 0 1 38
 340 1227 0 172 346 337 0 +18 232 347 348 349 38 341 1239 0 345 337 350 0 +290 2
32 351 352 353 40 6 342 0 1 6 4192818787710695e-20 .3599887939005125 ??-.0268328
1572999745 .024 .0295 -.02680789414829785 .024 .029635006331561 -.02673997946754
99 .024 .02975369674742555 -.02660172302697775 .024 .0298773066322064 -.02637523
15178056 .024 .02997362706822835 -.02615817271905665 .024 .03 41 1 343 L-.026832
81572999745 .024 .0295 41 1 344 L-.02615817271905665 .024 .03 16 345 1237 0 ?148
 354 339 341 0 0 1 38 350 1245 0 354 341 355 0 +282 232 356 357 358 54 290 1654
 0 359 282 266 360 +0 0 .0295 0 0 1 .0355 5e-4 1 0 0 40 6 351 0 1 6 393541313312
251e-19 .3299596127923985 ??.02615817271905665 .024 .03 .02640817271905665 .024
 .02996466992205065 .0266205462194643 .024 .0298646819095969 .02674817208352665
 .024 .02974304450265565 .02681426379846675 .024 .0296167669426478 .026832815729
99745 .024 .0295 41 1 352 L.02615817271905665 .024 .03 41 1 353 L.02683281572999
745 .024 .0295 14 359 1642 361 ?333 285 362 5 290 +0 0 333 285 22 141 360 341 36
3 363 290 141 363 364 360 360 290 38 364 1317 0 365 366 367 0 +290 223 368 369 3
70 16 365 1315 0 ?93 371 372 364 0 0 1 38 366 1311 0 372 373 364 0 +266 223 374
 375 376 38 367 1323 0 371 364 377 0 +277 223 378 379 380 40 6 368 0 1 6 .000251
929461809266 .372712506683422 ??.0345 .01028348190060152 .0295 .0345 .0102726814
6211406 .0295554452222567 .0345 .01023629607399694 .0296151929529835 .0345 .0101
4318352281412 .02969554832960185 .0345 .00980369842429348 .0298407639163302 .034
5 .0083666002653407 .03 41 1 369 L.0345 .01028348190060152 .0295 41 1 370 L.0345
 .0083666002653407 .03 16 371 1321 0 ?96 381 365 367 0 0 1 38 377 1329 0 381 367
 382 0 +288 223 383 384 385 40 6 378 0 1 6 .0002519294618093295 .372712506683406
5 ??.0345 -.01028348190060152 5e-4 .0345 -.01027268146211406 .000444554777743325
5 .0345 -.01023629607399696 .000384807047016493 .0345 -.01014318352281412 .00030
4451670398183 .0345 -.00980369842429357 .000159236083669845 .0345 -.008366600265
3407 472247276582537e-33 41 1 379 L.0345 -.01028348190060152 5e-4 41 1 380 L.034
5 -.0083666002653407 472247276582537e-33 16 381 1327 0 ?142 386 371 377 0 0 1 31
 382 1341 0 386 377 244 0 -0 0 .0295 0 0 1 1 0 0 .036 54 288 1570 0 387 388 277
 389 +0 0 5e-4 0 0 1 .0355 5e-4 1 0 0 40 9 383 0 1 9 830960934562331e-19 .336377
9224197195 ??.0345 .0083666002653407 0 .0345 .0093666002653407 663488496022502e-
19 .0345 .00968608497502234 .0001278528198155098 .0345 .00990480906635113 .00019
17350831161385 .0345 .0101182568233008 .0002886862838448165 .0345 .0101972693990
8164 .000345306399963297 .0345 .01026083289571594 .000419866222028058 .0345 .010
2805106325042 .000470880990872555 .0345 .01028348190060198 .000499999999999908 4
1 1 384 L.0345 .0083666002653407 0 41 1 385 L.0345 .01028348190060198 .000499999
999999908 14 387 1558 390 ?286 391 392 5 288 +0 0 286 391 22 51 388 28 0 393 394
 288 0 -0 0 .03 0 0 -1 .036 -1 0 0 141 389 355 395 395 288 38 355 1251 0 396 350
 397 0 +288 232 398 399 400 141 395 377 389 389 288 16 396 1249 0 ?122 401 354 3
55 0 0 1 31 397 1275 0 401 355 402 0 -0 0 0 0 0 1 1 0 0 .0355 40 6 398 0 1 6 419
28187877109e-18 .359988793900523 ??.02683281572999745 .024 5e-4 .026807894148297
85 .024 .000364993668438977 .0267399794675499 .024 .0002463032525744725 .0266017
230269777 .024 .0001226933677936094 .0263752315178056 .024 2637293177166385e-20
 .02615817271905665 .024 390234018656984e-33 41 1 399 L.02683281572999745 .024 5
e-4 41 1 400 L.02615817271905665 .024 390234018656984e-33 16 401 1273 0 ?119 403
 396 397 0 0 1 31 402 1281 0 403 397 404 0 -0 0 0 0 0 1 1 0 0 .0355 16 403 1279
 0 ?104 405 401 402 0 0 1 31 404 1287 0 405 402 373 0 -0 0 0 0 0 1 1 0 0 .0355 1
6 405 1285 0 ?107 406 403 404 0 0 1 31 373 1293 0 406 404 366 0 -0 0 0 0 0 1 1 0
 0 .0355 16 406 1291 0 ?99 372 405 373 0 0 1 17 99 0 407 205 408 97 409 406 0 41
0 +16 372 1309 0 ?84 365 406 366 0 0 1 17 84 0 411 412 413 82 90 372 0 414 +15 4
11 269 0 410 311 0 17 412 0 411 96 84 85 414 415 0 0 -17 413 0 411 84 93 88 181
 416 0 0 +17 90 0 417 418 419 88 84 372 0 420 -17 414 0 421 81 422 82 412 415 0
 419 +15 421 639 0 423 15 0 17 81 0 421 423 414 79 419 386 0 424 +17 422 0 421 4
14 423 85 425 426 0 412 +16 415 1304 0 ?414 416 427 428 0 0 1 17 419 0 417 90 42
9 82 81 386 0 0 -15 417 1664 0 429 333 0 17 429 0 417 419 418 79 75 264 0 0 -16
 386 1339 0 ?81 426 381 382 0 0 1 16 426 1345 0 ?422 243 386 244 0 0 1 16 243 13
75 0 ?63 252 426 240 0 0 1 31 244 1347 0 426 382 240 0 +0 0 5e-4 0 0 1 1 0 0 .03
6 17 63 0 237 157 430 61 66 243 0 431 +16 252 1381 0 ?69 258 243 245 0 0 1 17 69
 0 237 430 191 67 432 252 0 433 +16 258 1387 0 ?54 264 252 253 0 0 1 17 54 0 237
 434 435 52 60 258 0 436 +16 264 1393 0 ?75 270 258 259 0 0 1 17 75 0 237 193 42
4 73 429 264 0 183 +15 237 798 0 437 231 0 17 193 0 237 191 75 152 183 438 0 179
 +17 424 0 237 75 78 79 423 439 0 429 -17 183 0 178 420 179 73 193 438 0 418 -17
 420 0 178 181 183 88 418 440 0 413 +16 438 1352 0 ?193 439 192 441 442 442 1 17
 418 0 417 429 90 73 420 440 0 0 -16 440 1477 0 ?420 186 443 444 0 0 1 16 186 14
83 0 ?180 445 440 446 0 0 1 16 443 1471 0 ?40 440 301 306 0 0 1 31 444 1479 0 44
0 306 446 0 +0 0 .03 0 0 1 1 0 0 .0355 31 306 1473 0 443 296 444 0 +0 0 5e-4 0 0
 1 1 0 0 .036 31 446 1485 0 186 444 447 0 +0 0 .03 0 0 1 1 0 0 .0355 31 447 1491
 0 445 446 448 0 +0 0 .03 0 0 1 1 0 0 .0355 16 445 1489 0 ?449 450 186 447 0 0 1
 31 448 1497 0 450 447 451 0 +0 0 .03 0 0 1 1 0 0 .0355 16 450 1495 0 ?452 453 4
45 448 0 0 1 31 451 1503 0 453 448 454 0 +0 0 .043 0 0 1 1 0 0 .0295 16 453 1501
 0 ?455 456 450 451 0 0 1 31 454 1509 0 456 451 20 0 +0 0 .043 0 0 1 1 0 0 .0295
 16 456 1507 0 ?457 24 453 454 0 0 1 31 20 1515 0 24 454 7 0 -0 0 .0425 0 0 1 1
 0 0 .03 16 24 1513 0 ?72 10 456 20 0 0 1 17 72 0 173 154 165 70 175 24 0 191 +1
7 175 0 458 131 432 126 72 24 0 0 -17 191 0 237 69 193 70 154 192 0 432 -16 192
 1355 0 ?154 438 459 460 0 0 1 17 432 0 458 175 461 70 69 252 0 0 -15 458 1727 0
 432 462 0 17 461 0 458 432 131 67 457 456 0 0 -17 131 0 458 461 175 129 128 172
 0 457 -17 457 0 463 464 433 129 461 456 0 171 +15 463 555 0 433 314 465 17 464
 0 463 455 457 132 171 209 0 466 -17 433 0 463 457 455 67 430 467 0 461 -17 171
 0 163 128 134 129 464 209 0 0 +17 134 0 163 171 468 132 469 470 0 464 +16 209 1
196 0 ?171 467 206 219 0 0 1 16 467 1358 0 ?430 471 209 472 0 0 1 30 219 551 0 2
09 211 472 0 +-38707446228238e-31 .024 .043 1 1612810259509915e-31 0 30 472 556
 0 467 219 473 0 +3870744622823795e-33 -.024 .043 -1 -1612810259509915e-31 0 31
 473 1179 0 471 472 474 0 -0 0 .0295 0 0 1 1 0 0 .036 16 471 1177 0 ?145 475 467
 473 0 0 1 31 474 1185 0 475 473 346 0 +0 0 5e-4 0 0 1 1 0 0 .036 16 475 1183 0
 ?476 470 471 474 0 0 1 38 346 1221 0 470 474 340 0 +6 232 477 478 479 16 470 12
19 0 ?134 172 475 346 0 0 1 40 6 477 0 1 6 505546949654213e-19 .388335423504327
 ??-.018 .024 .0425 -.01797600372991995 .024 .0426190986917179 -.017913163389330
7 .024 .0427220701874545 -.01777148738127855 .024 .0428433695725182 -.0174934283
553918 .024 .04295876983611015 -.01715371679840845 .024 .043 41 1 478 L-.018 .02
4 .0425 41 1 479 L-.01715371679840845 .024 .043 16 172 1225 0 ?128 339 470 340 0
 0 1 17 476 0 480 481 482 149 483 475 0 168 +15 480 26 0 482 393 0 17 481 0 480
 145 476 146 168 187 0 484 +17 482 0 480 476 145 140 485 486 0 483 +17 483 0 392
 487 151 140 476 475 0 0 -17 168 0 163 122 148 149 481 187 0 0 -17 122 0 163 488
 168 120 151 396 0 408 +17 148 0 163 168 164 146 125 345 0 481 +16 187 1166 0 ?4
81 489 170 490 0 0 1 16 489 1193 0 ?160 189 187 491 0 0 1 30 490 873 0 187 188 4
91 0 -.02683281572999745 .024 .03 0 0 -1 30 188 874 0 170 177 490 0 +-3870744622
8238e-31 .024 .03 1 1612810259509915e-31 0 30 491 872 0 489 490 492 0 +-.018 .02
4 .043 0 0 -1 30 492 871 0 493 491 494 0 +-.02683281572999745 .024 .03 0 0 -1 16
 493 1214 0 ?495 496 189 492 0 0 1 30 494 870 0 496 492 441 0 --.018 -.024 .043
 0 0 -1 16 496 657 0 ?431 442 493 494 0 0 1 30 441 869 0 442 494 497 0 +38707446
22823795e-33 -.024 .03 -1 -1612810259509915e-31 0 16 442 742 0 ?435 459 496 441
 438 438 1 30 497 868 0 459 441 460 0 --.0268328157299975 -.024 .03 0 0 -1 16 45
9 1370 0 ?436 192 442 497 0 0 1 30 460 867 0 192 497 498 0 +.018 -.024 .043 0 0
 -1 30 498 866 0 439 460 499 0 +.0268328157299975 -.024 .03 0 0 -1 16 439 1334 0
 ?423 500 438 498 0 0 1 31 499 518 0 218 498 501 0 +.0345 0 .015 -1 0 0 0 0 1 .0
075 16 218 483 0 ?502 210 500 499 0 0 1 31 501 517 0 500 499 503 0 +-.0345 0 .01
5 -1 0 0 0 0 1 .0075 16 500 488 0 ?504 218 439 501 0 0 1 31 503 444 0 427 501 50
5 0 +0 0 0 0 0 1 1 0 0 .018 16 427 421 0 ?506 415 507 503 0 0 1 31 505 443 0 507
 503 428 0 +0 0 .043 0 0 1 1 0 0 .018 16 507 424 0 ?508 427 217 505 0 0 1 30 428
 328 0 415 505 509 0 -.0345 -.01028348190060152 .03 0 0 -1 30 509 327 0 416 428
 510 0 +.0345 0 .03 0 -1 0 16 416 1298 0 ?413 486 415 509 0 0 1 30 510 326 0 486
 509 511 0 +.0345 .01028348190060152 .03 0 0 -1 16 486 1172 0 ?482 512 416 510 0
 0 1 30 511 325 0 512 510 203 0 --.0345 .01028348190060154 .03 0 0 -1 16 512 143
6 0 ?32 200 486 511 0 0 1 30 203 324 0 200 511 201 0 +-.0345 0 .03 0 1 0 16 200
 1430 0 ?29 195 512 203 0 0 1 17 29 0 27 25 45 34 513 200 0 0 +15 27 265 0 514 3
07 0 17 45 0 27 29 515 41 516 319 0 513 +17 513 0 517 449 452 41 29 200 0 518 -1
5 517 631 0 519 520 0 17 449 0 517 521 513 58 518 445 0 435 +17 452 0 517 513 51
9 34 522 450 0 29 +17 518 0 523 516 60 41 449 445 0 0 -15 523 1706 0 516 332 0 1
7 516 0 523 524 518 49 45 319 0 0 -17 60 0 523 518 524 58 54 258 0 449 -17 524 0
 523 60 516 52 51 525 0 0 -17 51 0 526 199 436 49 524 525 0 515 +16 525 1417 0 ?
51 527 275 276 0 0 1 16 527 1423 0 ?528 319 525 320 0 0 1 16 275 1405 0 ?78 525
 270 249 0 0 1 31 276 1419 0 525 249 320 0 -0 0 .0295 0 0 1 1 0 0 .036 31 320 14
25 0 527 276 316 0 +0 0 5e-4 0 0 1 1 0 0 .036 17 78 0 237 424 437 76 529 275 0 4
23 +17 437 0 237 78 110 105 530 531 0 529 +17 529 0 532 533 425 105 78 275 0 0 -
17 423 0 421 422 81 76 424 439 0 425 +17 425 0 532 529 87 76 422 426 0 0 -15 532
 1580 0 529 286 0 17 87 0 532 425 533 85 96 371 0 422 -17 533 0 532 87 529 94 10
7 405 0 0 -17 96 0 411 410 412 94 87 371 0 205 +17 410 0 411 142 96 97 205 198 0
 487 -17 205 0 407 107 99 94 410 198 0 533 +15 407 17 0 408 534 0 17 107 0 407 5
30 205 105 533 405 0 437 +17 530 0 407 104 107 108 437 531 0 535 -17 104 0 407 2
08 530 102 535 403 0 514 +16 531 1256 0 ?437 176 536 537 0 0 1 17 535 0 287 57 5
38 108 104 403 0 0 -15 287 1601 0 538 281 0 17 57 0 287 539 535 55 110 270 0 528
 -17 538 0 287 535 539 102 48 294 0 0 -17 539 0 287 538 57 46 528 527 0 0 -17 48
 0 27 515 514 46 538 294 0 199 +17 515 0 27 45 48 49 199 195 0 516 -17 514 0 27
 48 38 102 208 206 0 538 -17 199 0 526 528 51 46 515 195 0 539 +15 526 132 0 199
 540 0 17 528 0 526 436 199 55 539 527 0 434 +17 436 0 526 51 528 52 434 459 0 5
24 +17 434 0 237 110 54 55 436 459 0 0 -17 110 0 237 437 434 108 57 270 0 530 +1
4 540 133 541 ?520 190 526 5 388 -393 542 520 190 22 81 1 541 2055 543 540 544 0
 390 545 546 14 520 57 545 ?393 540 517 5 547 +182 182 393 540 22 14 190 577 548
 ?540 542 173 5 315 -549 549 540 542 22 14 393 25 550 ?534 520 480 5 388 -15 540
 534 520 22 14 542 613 551 ?190 182 552 5 388 -540 15 190 182 22 13 22 8 0 0 0 0
 0 0 9 15 14 15 640 553 ?182 0 421 5 388 -542 393 182 0 22 81 1 553 2060 543 15
 554 0 551 555 556 14 182 632 555 ?542 15 178 5 547 +520 520 542 15 22 81 1 555
 2061 543 182 557 0 553 558 559 50 547 2 0 520 315 394 0 +0 0 .03 0 0 1 1 0 0 51
 315 79 0 549 308 547 0 -0 0 .043 0 0 -1 .03 -1 0 0 50 394 22 0 534 547 388 0 +0
 0 0 0 0 1 1 0 0 14 534 16 558 ?549 393 560 5 394 -0 0 549 393 22 81 1 558 2062
 543 534 561 0 555 562 563 14 549 66 562 ?314 534 564 5 315 -190 190 314 534 22
 15 560 415 0 506 534 407 17 506 0 560 506 506 0 565 427 0 0 +17 565 0 566 565 5
65 0 506 427 0 0 -15 566 430 0 565 222 567 14 222 427 568 ?229 307 569 5 212 -0
 0 229 307 22 15 567 431 0 508 222 0 17 508 0 567 508 508 0 570 507 0 0 +17 570
 0 465 570 570 0 508 507 0 0 -15 465 410 0 570 314 0 14 314 71 571 ?311 549 572
 5 308 +0 0 311 549 22 81 1 571 2065 543 314 573 0 568 574 575 14 311 266 574 ?3
07 314 576 5 223 -0 0 307 314 22 15 572 1070 0 577 314 578 17 577 0 572 577 577
 0 579 580 0 0 -15 578 1039 0 581 314 582 17 581 0 578 581 581 0 583 584 0 0 -15
 582 1008 0 585 314 586 17 585 0 582 585 585 0 587 588 0 0 -15 586 977 0 589 314
 463 17 589 0 586 589 589 0 590 591 0 0 -17 590 0 592 590 590 0 589 591 0 0 +16
 591 985 0 ?590 536 593 594 0 0 1 16 536 982 0 ?595 531 591 596 0 0 1 16 593 101
3 0 ?597 591 588 598 0 0 1 31 594 1004 0 591 596 537 0 +-.0203515969889343 .0117
5 .043 0 0 1 1 0 0 .003 31 596 1005 0 536 599 594 0 +-.0203515969889343 .01175 .
031 0 0 1 1 0 0 .003 30 537 894 0 531 594 600 0 +.0430236220472441 -.024 0 1 161
2810259509915e-31 0 30 600 892 0 176 537 177 0 +.0430236220472441 .024 0 -1 -161
2810259509915e-31 0 16 176 1208 0 ?488 166 531 600 0 0 1 30 177 875 0 166 600 18
8 0 -.018 .024 .043 0 0 -1 17 488 0 163 113 122 117 408 176 0 601 +17 113 0 163
 602 488 111 601 354 0 495 +17 408 0 407 99 119 120 488 176 0 409 -17 601 0 35 3
7 36 117 113 354 0 0 -15 35 1622 0 601 285 0 17 37 0 35 33 601 100 119 401 0 0 -
17 36 0 35 601 33 111 40 443 0 0 -16 354 1243 0 ?113 396 345 350 0 0 1 17 40 0 5
52 32 495 26 36 443 0 28 +15 552 612 0 495 542 0 17 32 0 552 116 40 11 28 512 0
 603 +17 495 0 552 40 116 111 602 493 0 36 +17 28 0 27 38 25 26 32 512 0 0 -17 3
8 0 27 514 28 100 33 39 0 208 +16 39 1453 0 ?38 294 31 295 0 0 1 17 208 0 407 11
9 104 100 514 206 0 37 +17 119 0 407 408 208 117 37 401 0 488 +17 116 0 552 495
 32 114 603 301 0 602 +17 602 0 163 139 113 114 495 493 0 604 -17 139 0 163 605
 602 137 604 339 0 519 +17 604 0 334 603 522 114 139 339 0 0 -15 334 1685 0 604
 329 0 17 603 0 334 30 604 11 116 301 0 0 -17 522 0 334 604 30 137 452 450 0 0 -
17 30 0 334 522 603 34 25 31 0 452 -16 301 1465 0 ?116 443 294 296 0 0 1 17 605
 0 163 468 139 158 519 189 0 606 +17 519 0 517 452 606 137 605 189 0 522 -17 606
 0 517 519 521 158 197 194 0 0 -16 189 1190 0 ?605 493 489 188 170 170 1 17 521
 0 517 606 449 155 435 442 0 197 -17 197 0 564 431 160 155 606 194 0 0 +15 564 7
0 0 431 549 0 17 431 0 564 23 197 61 157 496 0 607 +17 160 0 564 197 23 158 468
 489 0 605 +17 23 0 564 160 431 135 607 10 0 468 +17 468 0 163 134 605 135 160 4
89 0 469 -17 469 0 608 607 466 135 134 470 0 0 -15 608 1748 0 469 17 0 17 607 0
 608 66 469 61 23 10 0 0 -17 466 0 608 469 66 132 455 453 0 0 -17 66 0 608 466 6
07 64 63 243 0 455 -17 455 0 463 433 464 64 466 453 0 430 +17 430 0 237 63 69 64
 433 467 0 0 +14 17 1747 609 ?0 462 608 5 6 +0 0 0 462 22 81 1 609 2067 543 17 6
10 0 574 611 612 14 462 1726 611 ?17 332 458 5 18 +0 0 17 332 22 81 1 611 2068 5
43 462 613 0 609 614 615 14 332 1705 614 ?462 329 523 5 260 +0 0 462 329 22 54 1
8 1738 0 462 260 6 616 +0 0 .0425 0 0 1 .0295 5e-4 1 0 0 141 616 340 617 617 18
 141 617 245 616 616 18 81 1 614 2069 543 332 618 0 611 619 620 80 1 543 621 622
 9000 1 1 1 1 1 1 1 1 0 FFFFTFTFFFFFFF1 81 1 618 1973 623 332 0 614 624 613 625
 81 1 619 2070 543 333 626 0 614 627 628 82 1 620 1424425126 14 333 1663 619 ?32
9 359 417 5 266 +0 0 329 359 22 81 1 626 1971 623 333 0 619 629 624 630 81 1 627
 2071 543 285 631 0 619 632 633 82 1 628 1420492966 14 285 1621 627 ?359 281 35
 5 282 +0 0 359 281 22 81 1 631 1969 623 285 0 627 634 629 635 81 1 632 2072 543
 286 636 0 627 637 638 82 1 633 1416560806 14 286 1579 632 ?281 387 532 5 277 +0
 0 281 387 22 81 1 636 1967 623 286 0 632 639 634 640 81 1 637 2073 543 391 641
 0 632 642 643 82 1 638 1412628646 14 391 1086 637 ?387 644 645 5 646 +0 0 387 6
44 22 81 1 641 1965 623 391 0 637 647 639 648 81 1 642 2074 543 644 647 0 637 64
9 650 82 1 643 847446178 14 644 1081 642 ?391 651 652 5 653 -0 0 391 651 22 81 1
 647 1964 623 644 0 642 654 641 655 81 1 649 2075 543 651 654 0 642 656 657 82 1
 650 849412258 14 651 1055 649 ?644 658 659 5 660 +0 0 644 658 22 81 1 654 1963
 623 651 0 649 661 647 662 81 1 656 2076 543 658 661 0 649 663 664 82 1 657 8435
14018 14 658 1050 656 ?651 665 666 5 667 -0 0 651 665 22 81 1 661 1962 623 658 0
 656 668 654 669 81 1 663 2077 543 665 668 0 656 670 671 82 1 664 845480098 14 6
65 1024 663 ?658 672 673 5 674 +0 0 658 672 22 81 1 668 1961 623 665 0 663 675 6
61 676 81 1 670 2078 543 672 675 0 663 677 678 82 1 671 839581858 14 672 1019 67
0 ?665 679 680 5 681 -0 0 665 679 22 81 1 675 1960 623 672 0 670 682 668 683 81
 1 677 2079 543 679 682 0 670 684 685 82 1 678 841547938 14 679 993 677 ?672 236
 686 5 687 +0 0 672 236 22 81 1 682 1959 623 679 0 677 688 675 689 81 1 684 2080
 543 236 688 0 677 690 691 82 1 685 835584162 14 236 988 684 ?679 231 692 5 238
 -0 0 679 231 22 81 1 688 1958 623 236 0 684 693 682 694 81 1 690 2081 543 169 6
95 0 684 696 697 82 1 691 837550242 14 169 803 690 ?231 225 163 5 232 -0 0 231 2
25 22 81 1 695 1956 623 169 0 690 698 693 699 81 1 696 2082 543 229 700 0 690 0
 701 82 1 697 1746272422 14 229 496 696 ?225 222 702 5 213 -225 225 225 222 22 8
1 1 700 1954 623 229 0 696 703 698 704 82 1 701 690946204 80 1 623 0 705 8001 0
 0 0 0 3 5 0 0 0 FFFFTFTFFFFFFF2 81 1 703 1953 623 222 0 568 706 700 707 81 1 69
8 1955 623 225 0 228 700 695 708 83 3 704 .529411764705882 .549019607843137 .549
019607843137 81 1 228 2048 543 225 698 0 0 235 709 83 3 708 .529411764705882 .54
9019607843137 .549019607843137 81 1 235 2049 543 231 693 0 228 284 710 82 1 709
 691470492 81 1 693 1957 623 231 0 235 695 688 711 81 1 284 2050 543 281 634 0 2
35 310 712 82 1 710 1746075814 81 1 634 1968 623 281 0 284 636 631 713 81 1 310
 2051 543 307 706 0 284 331 714 82 1 712 1414594726 81 1 706 1952 623 307 0 310
 715 703 716 81 1 331 2052 543 329 624 0 310 361 717 82 1 714 1743716518 81 1 62
4 1972 623 329 0 331 626 618 718 81 1 361 2053 543 359 629 0 331 390 719 82 1 71
7 1422459046 81 1 629 1970 623 359 0 361 631 626 720 81 1 390 2054 543 387 639 0
 361 541 721 82 1 719 1418526886 81 1 639 1966 623 387 0 390 641 636 722 82 1 72
1 1410662566 83 3 722 .529411764705882 .549019607843137 .549019607843137 83 3 72
0 .529411764705882 .549019607843137 .549019607843137 83 3 718 .529411764705882 .
549019607843137 .549019607843137 81 1 715 1951 623 311 0 574 573 706 723 83 3 71
6 .529411764705882 .549019607843137 .549019607843137 81 1 574 2066 543 311 715 0
 571 609 724 81 1 573 1950 623 314 0 571 725 715 726 83 3 723 .529411764705882 .
549019607843137 .549019607843137 81 1 725 1949 623 549 0 562 561 573 727 83 3 72
6 .529411764705882 .549019607843137 .549019607843137 81 1 562 2063 543 549 725 0
 558 568 728 81 1 561 1948 623 534 0 558 729 725 730 83 3 727 .529411764705882 .
549019607843137 .549019607843137 81 1 729 1947 623 393 0 550 731 561 732 83 3 73
0 .529411764705882 .549019607843137 .549019607843137 81 1 550 2058 543 393 729 0
 548 551 733 81 1 731 1946 623 520 0 545 544 729 734 83 3 732 .529411764705882 .
549019607843137 .549019607843137 81 1 545 2056 543 520 731 0 541 548 735 81 1 54
4 1945 623 540 0 541 736 731 737 83 3 734 .529411764705882 .549019607843137 .549
019607843137 81 1 736 1944 623 190 0 548 738 544 739 83 3 737 .529411764705882 .
549019607843137 .549019607843137 81 1 548 2057 543 190 736 0 545 550 740 81 1 73
8 1943 623 542 0 551 557 736 741 83 3 739 .529411764705882 .549019607843137 .549
019607843137 81 1 551 2059 543 542 738 0 550 553 742 81 1 557 1942 623 182 0 555
 554 738 743 83 3 741 .529411764705882 .549019607843137 .549019607843137 81 1 55
4 1941 623 15 0 553 0 557 744 83 3 743 .529411764705882 .549019607843137 .549019
607843137 83 3 744 .529411764705882 .549019607843137 .549019607843137 82 1 742 1
744240806 82 1 740 1744699558 82 1 735 1744502950 82 1 733 1744306342 81 1 568 2
064 543 222 703 0 562 571 745 82 1 728 1744961702 82 1 745 -1967652708 82 1 724
 1748500646 83 3 713 .529411764705882 .549019607843137 .549019607843137 83 3 711
 .529411764705882 .549019607843137 .549019607843137 83 3 707 .529411764705882 .5
49019607843137 .549019607843137 79 15 705 SDL/TYSA_COLOUR15 702 499 0 504 229 74
6 17 504 0 702 504 504 0 747 500 0 0 +15 746 500 0 748 229 0 17 748 0 746 748 74
8 0 216 210 0 0 -17 216 0 749 216 216 0 748 210 0 0 +15 749 459 0 216 222 566 17
 747 0 312 747 747 0 504 500 0 0 -15 312 471 0 747 307 27 83 3 699 .529411764705
882 .549019607843137 .549019607843137 83 3 694 .529411764705882 .549019607843137
 .549019607843137 15 692 991 0 750 236 592 51 238 1001 0 236 687 232 0 +-.020351
5969889343 .01175 .031 0 0 1 .003 1 0 0 50 687 1003 0 679 681 238 0 +-.020351596
9889343 .01175 .031 0 0 1 1 0 0 51 681 1032 0 672 674 687 0 +-.0203515969889343
 -.01175 .031 0 0 1 .003 1 0 0 50 674 1034 0 665 667 681 0 +-.0203515969889343 -
.01175 .031 0 0 1 1 0 0 51 667 1063 0 658 660 674 0 +.0203515969889343 -.01175 .
031 0 0 1 .003 1 0 0 50 660 1065 0 651 653 667 0 +.0203515969889343 -.01175 .031
 0 0 1 1 0 0 51 653 1094 0 644 646 660 0 +.0203515969889343 .01175 .031 0 0 1 .0
03 1 0 0 50 646 1096 0 391 0 653 0 +.0203515969889343 .01175 .031 0 0 1 1 0 0 17
 750 0 692 750 750 0 595 536 0 0 -15 592 992 0 590 236 0 17 595 0 686 595 595 0
 750 536 0 0 +15 686 995 0 595 679 0 83 3 689 .529411764705882 .549019607843137
 .549019607843137 83 3 683 .529411764705882 .549019607843137 .549019607843137 15
 680 1022 0 751 672 752 17 751 0 680 751 751 0 597 593 0 0 -15 752 1023 0 587 67
2 0 17 587 0 752 587 587 0 585 588 0 0 +16 588 1016 0 ?587 593 753 599 0 0 1 16
 753 1044 0 ?754 588 584 755 0 0 1 31 599 1035 0 588 598 596 0 +-.02035159698893
43 -.01175 .043 0 0 1 1 0 0 .003 31 598 1036 0 593 756 599 0 +-.0203515969889343
 -.01175 .031 0 0 1 1 0 0 .003 31 756 1066 0 584 755 598 0 +.0203515969889343 -.
01175 .043 0 0 1 1 0 0 .003 16 584 1047 0 ?583 753 757 756 0 0 1 31 755 1067 0 7
53 758 756 0 +.0203515969889343 -.01175 .031 0 0 1 1 0 0 .003 31 758 1097 0 580
 759 755 0 +.0203515969889343 .01175 .043 0 0 1 1 0 0 .003 16 580 1078 0 ?579 75
7 0 758 0 0 1 31 759 1098 0 757 0 758 0 +.0203515969889343 .01175 .031 0 0 1 1 0
 0 .003 16 757 1075 0 ?760 584 580 759 0 0 1 17 760 0 645 760 760 0 761 757 0 0
 +15 645 1088 0 760 391 0 17 761 0 652 761 761 0 760 757 0 0 -15 652 1084 0 761
 644 762 15 762 1085 0 579 644 0 17 579 0 762 579 579 0 577 580 0 0 +17 583 0 76
3 583 583 0 581 584 0 0 +15 763 1054 0 583 658 0 17 754 0 659 754 754 0 764 753
 0 0 +15 659 1057 0 754 651 0 17 764 0 666 764 764 0 754 753 0 0 -15 666 1053 0
 764 658 763 17 597 0 673 597 597 0 751 593 0 0 +15 673 1026 0 597 665 0 83 3 67
6 .529411764705882 .549019607843137 .549019607843137 83 3 669 .529411764705882 .
549019607843137 .549019607843137 83 3 662 .529411764705882 .549019607843137 .549
019607843137 83 3 655 .529411764705882 .549019607843137 .549019607843137 83 3 64
8 .529411764705882 .549019607843137 .549019607843137 83 3 640 .529411764705882 .
549019607843137 .549019607843137 83 3 635 .529411764705882 .549019607843137 .549
019607843137 83 3 630 .529411764705882 .549019607843137 .549019607843137 81 1 61
3 1974 623 462 0 611 618 610 765 83 3 625 .529411764705882 .549019607843137 .549
019607843137 81 1 610 1975 623 17 0 609 613 0 766 83 3 765 .529411764705882 .549
019607843137 .549019607843137 83 3 766 .529411764705882 .549019607843137 .549019
607843137 79 14 622 SWEntUnchanged82 1 615 1426391206 82 1 612 1428357286 17 157
 0 237 435 63 155 431 496 0 521 -17 435 0 237 54 157 58 521 442 0 0 +17 409 0 39
2 151 487 120 99 406 0 0 -15 392 1559 0 487 387 0 17 151 0 392 483 409 149 122 3
96 0 476 -17 487 0 392 409 483 97 142 381 0 0 -17 142 0 411 485 410 140 487 381
 0 482 +17 485 0 411 93 142 143 482 486 0 767 -17 93 0 411 413 485 91 767 365 0
 181 +17 767 0 362 484 185 143 93 365 0 0 -15 362 1643 0 767 359 0 17 484 0 362
 125 767 146 145 471 0 0 -17 185 0 362 767 125 91 180 186 0 0 -17 125 0 362 185
 484 123 148 345 0 180 -17 145 0 480 482 481 143 484 471 0 485 +17 181 0 178 180
 420 91 413 416 0 185 -15 576 477 0 502 311 411 17 502 0 576 502 502 0 768 218 0
 0 +17 768 0 230 768 768 0 502 218 0 0 -15 230 494 0 768 225 769 15 769 495 0 77
0 225 0 17 770 0 769 770 770 0 771 217 0 0 -17 771 0 569 771 771 0 770 217 0 0 +
16 217 486 0 ?771 507 210 211 0 0 1 15 569 465 0 771 222 749 82 1 575 1742667942
 82 1 563 1744437414 82 1 559 1744109734 82 1 556 1743978662 82 1 546 1744568486
 16 319 1441 0 ?45 31 527 316 0 0 1 40 9 374 0 1 9 830960934562345e-19 .33637792
24197075 ??.0345 -.0083666002653407 .03 .0345 -.0093666002653407 .02993365115039
775 .0345 -.00968608497502234 .0298721471801845 .0345 -.00990480906635113 .02980
826491688385 .0345 -.0101182568233008 .0297113137161552 .0345 -.0101972693990816
4 .0296546936000367 .0345 -.01026083289571594 .02958013377797195 .0345 -.0102805
106325042 .02952911900912745 .0345 -.01028348190060198 .0295 41 1 375 L.0345 -.0
083666002653407 .03 41 1 376 L.0345 -.01028348190060198 .0295 40 6 356 0 1 6 393
5413133123555e-20 .329959612792395 ??-.02615817271905665 .024 0 -.02640817271905
665 .024 3533007794933115e-20 -.02662054621946435 .024 .000135318090403107 -.026
74817208352665 .024 .0002569554973443715 -.02681426379846675 .024 .0003832330573
52211 -.0268328157299975 .024 5e-4 41 1 357 L-.02615817271905665 .024 0 41 1 358
 L-.0268328157299975 .024 5e-4 40 6 347 0 1 6 934815513083964e-19 .3717608790428
7 ??.01715371679840845 .024 .043 .0176225479821023 .024 .0429175428147476 .01780
36778425103 .024 .0428218732088044 .01792964512973185 .024 .04270095417402265 .0
179844610061117 .024 .0425960934038885 .018 .024 .0425 41 1 348 L.01715371679840
845 .024 .043 41 1 349 L.018 .024 .0425 141 336 253 772 772 260 141 772 316 336
 336 260 141 335 366 773 773 266 141 773 259 335 335 266 40 6 321 0 1 6 .0002519
294618093305 .372712506683426 ??-.0345 -.01028348190060154 .0295 -.0345 -.010272
68146211406 .0295554452222567 -.0345 -.010236296073997 .0296151929529835 -.0345
 -.01014318352281416 .02969554832960185 -.0345 -.00980369842429361 .029840763916
33015 -.0345 -.00836660026534074 .03 41 1 322 L-.0345 -.01028348190060154 .0295
 41 1 323 L-.0345 -.00836660026534074 .03 141 313 366 774 775 223 141 774 377 77
6 313 223 141 775 364 313 776 223 141 776 367 775 774 223 40 6 303 0 1 6 .000251
9294618093335 .3727125066834195 ??-.0345 .01028348190060154 5e-4 -.0345 .0102726
8146211408 .0004445547777433255 -.0345 .01023629607399698 .0003848070470164895 -
.0345 .01014318352281416 .0003044516703981755 -.0345 .0098036984242936 .00015923
60836698385 -.0345 .00836660026534074 4451157524150675e-34 41 1 304 L-.0345 .010
28348190060154 5e-4 41 1 305 L-.0345 .00836660026534074 4451157524150675e-34 141
 291 350 777 777 282 141 777 295 291 291 282 141 289 367 778 778 277 141 778 249
 289 289 277 40 6 278 0 1 6 3935413133122905e-20 .3299596127923855 ??.0261581727
1905665 -.024 0 .02640817271905665 -.024 353300779493302e-19 .02662054621946435
 -.024 .0001353180904031056 .02674817208352665 -.024 .0002569554973443705 .02681
426379846675 -.024 .000383233057352208 .0268328157299975 -.024 5e-4 41 1 279 L.0
2615817271905665 -.024 0 41 1 280 L.0268328157299975 -.024 5e-4 40 6 267 0 1 6 4
192818787710985e-20 .359988793900521 ??.0268328157299975 -.024 .0295 .0268078941
482979 -.024 .02963500633156105 .0267399794675499 -.024 .02975369674742555 .0266
0172302697775 -.024 .0298773066322064 .02637523151780565 -.024 .0299736270682283
5 .02615817271905665 -.024 .03 41 1 268 L.0268328157299975 -.024 .0295 41 1 269
 L.02615817271905665 -.024 .03 40 6 261 0 1 6 393541313312251e-19 .3299596127923
935 ??-.02615817271905665 -.024 .03 -.02640817271905665 -.024 .02996466992205065
 -.0266205462194643 -.024 .0298646819095969 -.02674817208352665 -.024 .029743044
50265565 -.02681426379846675 -.024 .0296167669426478 -.0268328157299975 -.024 .0
295 41 1 262 L-.02615817271905665 -.024 .03 41 1 263 L-.0268328157299975 -.024 .
0295 40 6 254 0 1 6 50554694965429e-18 .388335423504331 ??.018 -.024 .0425 .0179
7600372992 -.024 .0426190986917179 .0179131633893307 -.024 .0427220701874545 .01
777148738127855 -.024 .0428433695725182 .0174934283553918 -.024 .042958769836110
15 .01715371679840845 -.024 .043 41 1 255 L.018 -.024 .0425 41 1 256 L.017153716
79840845 -.024 .043 40 6 246 0 1 6 934815513083964e-19 .3717608790428845 ??-.017
15371679840845 -.024 .043 -.01762254798210235 -.024 .0429175428147476 -.01780367
784251035 -.024 .0428218732088044 -.0179296451297319 -.024 .04270095417402265 -.
0179844610061117 -.024 .0425960934038885 -.018 -.024 .0425 41 1 247 L-.017153716
79840845 -.024 .043 41 1 248 L-.018 -.024 .0425 141 239 346 779 780 232 141 779
 355 781 239 232 141 780 340 239 782 232 141 782 337 780 783 232 141 783 341 782
 781 232 141 781 350 783 779 232 141 224 207 784 784 212 141 784 211 224 224 212
 40 21 220 0 1 21 .000483505601838607 .366620418957156 ??.018 0 .0075 .017843569
1112934 .002367919206919065 .00788361337267966 .0174371236938185 .00446617479354
24 .00897477944689769 .0169088025612941 .00617190375355729 .0107388259767025 .01
64732905483674 .00725470182082413 .0130975538139198 .01637365285715695 .00747686
378860259 .01558864920511565 .0166055757150959 .00694657146873317 .0178275687135
386 .017056832248205 .00575017161975142 .01981513513241375 .01758533695111795 .0
03841344076706195 .0214415895308809 .01794420968371535 .001416099864718694 .0223
650974992286 .0179701390586353 -.001036389026046932 .0224280480468754 .017703297
7107805 -.00325472735624264 .0217569778626636 .01723442560676465 -.0051937052289
1841 .0204106770366661 .01670872476328755 -.0066946633062986 .0183810476505514 .
0163877758453544 -.00744585809980412 .0158995538658587 .01643249109264265 -.0073
4664797647333 .01349110520254714 .0167638267548065 -.00655546432640997 .01135639
08737124 .0172687107700191 -.00507854588848289 .00948108963122488 .0177620457922
2985 -.00291714402708017 .0080905665409333 .01799498429946535 -.0004249000611864
955 .00751204567735595 .018 167887743674545e-34 .0075 41 1 221 H.018 16788774367
4545e-34 .0075 19 16 30 0 1 0 9 5 S0 141 19 346 785 785 6 141 785 240 19 19 6 74
 20 14 3 0 0 696 2 610 0 0 0 0 0 0 0 0 0 0 0 0 0 0 0 0 0 80 2 12 786 787 8004 0
 0 0 0 3 5 0 0 0 FFTFFFFFFFFFFF2 3 83 1 13 78e2 79 16 787 SDL/TYSA_DENSITY1 0 
