**ABCDEFGHIJKLMNOPQRSTUVWXYZabcdefghijklmnopqrstuvwxyz**************************
**PARASOLID !"#$%&'()*+,-./:;<=>?@[\]^_`{|}~0123456789**************************
**PART1;
MC=AMD64;
MC_MODEL=Intel64 Family 6 Model 58 Stepping 9, GenuineIntel;
MC_ID=unknown;
OS=Windows_NT;
OS_RELEASE=unknown;
FRU=Parasolid Version 28.0, build 209,  1-25-2016;
APPL=SOLIDWORKS 2016-2016095;
SITE=;
USER=unknown;
FORMAT=text;
GUISE=transmit;
KEY=body_link_nut;
FILE=body_link_nut.x_t;
DATE=Tue Aug 02 09:58:18 2016;
**PART2;
SCH=SCH_2800209_28002;
USFLD_SIZE=0;
**PART3;
**END_OF_HEADER*****************************************************************
T51 : TRANSMIT FILE created by modeller version 280020917 SCH_2500000_250010 12
 1 2008 2 3 0 0 0 0 1e3 1e-8 0 4 0 1 0 1 1 5 6 7 8 9 10 11 0 0 0 0 0 0 81 2 2 11
27 12 1 0 0 0 0 13 0 70 3 0 4 T1 0 0 2 20 1 14 14 13 5 29 0 1 0 15 0 0 16 0 54 6
 1759 0 17 18 0 19 +0 0 .0275 0 0 1 .0295 5e-4 1 0 0 31 7 1521 0 10 20 0 0 -0 0
 .0275 0 0 1 1 0 0 .03 29 8 1440 0 11 21 0 -.0345 .01028348190060154 .0145 19 9
 7 0 1 16 0 22 V0 16 10 1519 0 ?23 0 24 7 0 0 1 18 11 1438 0 25 0 26 8 ?1 17 25
 0 27 28 29 11 30 31 0 32 +18 26 1435 0 33 11 34 21 ?1 17 33 0 35 36 37 26 38 39
 0 40 -18 34 1432 0 30 26 41 42 ?1 29 21 1437 0 26 42 8 -.0345 .0102834819006015
4 -.0145 29 42 1434 0 34 43 21 -.0345 .00836660026534074 .015 29 43 1431 0 41 44
 42 -.0345 -.00836660026534074 .015 18 41 1429 0 45 34 46 43 ?1 29 44 1416 0 46
 47 43 -.0345 -.01028348190060154 -.0145 18 46 1414 0 48 41 49 44 ?1 29 47 1413
 0 49 50 44 -.0345 -.01028348190060154 .0145 18 49 1411 0 51 46 52 47 ?1 29 50 1
374 0 52 53 47 -.0268328157299975 -.024 .0145 18 52 1372 0 54 49 55 50 ?1 29 53
 1371 0 55 56 50 -.0268328157299975 -.024 -.0145 18 55 1369 0 57 52 58 53 ?1 29
 56 1368 0 58 59 53 -.02615817271905665 -.024 .015 18 58 1366 0 60 55 61 56 ?1 2
9 59 1365 0 61 62 56 -.018 -.024 .0275 18 61 1363 0 63 58 64 59 ?1 29 62 1362 0
 64 65 59 -.01715371679840845 -.024 .028 18 64 1360 0 66 61 67 62 ?1 29 65 1359
 0 67 68 62 .01715371679840845 -.024 .028 18 67 1357 0 69 64 70 65 ?1 29 68 1356
 0 70 71 65 .018 -.024 .0275 18 70 1354 0 72 67 73 68 ?1 29 71 1353 0 73 74 68 .
02615817271905665 -.024 .015 18 73 1351 0 75 70 76 71 ?1 29 74 1338 0 76 77 71 .
0268328157299975 -.024 -.0145 18 76 1336 0 78 73 79 74 ?1 29 77 1335 0 79 80 74
 .0268328157299975 -.024 .0145 18 79 1333 0 81 76 82 77 ?1 29 80 1308 0 82 83 77
 .0345 -.01028348190060152 .0145 18 82 1306 0 84 79 85 80 ?1 29 83 1305 0 85 86
 80 .0345 -.01028348190060152 -.0145 18 85 1303 0 87 82 88 83 ?1 29 86 1302 0 88
 89 83 .0345 -.0083666002653407 .015 18 88 1300 0 90 85 91 86 ?1 29 89 1299 0 91
 92 86 .0345 .0083666002653407 .015 18 91 1297 0 93 88 94 89 ?1 29 92 1272 0 94
 95 89 .0345 -.0083666002653407 -.015 18 94 1270 0 96 91 97 92 ?1 29 95 1269 0 9
7 98 92 .0345 .0083666002653407 -.015 18 97 1267 0 99 94 100 95 ?1 29 98 1266 0
 100 101 95 -.0345 .00836660026534074 -.015 18 100 1264 0 38 97 102 98 ?1 29 101
 1263 0 102 103 98 -.0345 -.00836660026534074 -.015 18 102 1261 0 104 100 105 10
1 ?1 29 103 1260 0 105 106 101 .02615817271905665 -.024 -.015 18 105 1258 0 107
 102 108 103 ?1 29 106 1257 0 108 109 103 -.02615817271905665 -.024 -.015 18 108
 1255 0 110 105 111 106 ?1 29 109 1218 0 111 112 106 -.02683281572999745 .024 -.
0145 18 111 1216 0 113 108 114 109 ?1 29 112 1215 0 114 115 109 -.02683281572999
745 .024 .0145 18 114 1213 0 116 111 117 112 ?1 29 115 1212 0 117 118 112 -.0261
5817271905665 .024 -.015 18 117 1210 0 119 114 120 115 ?1 29 118 1209 0 120 121
 115 .02615817271905665 .024 -.015 18 120 1207 0 122 117 123 118 ?1 29 121 1206
 0 123 124 118 .02615817271905665 .024 .015 18 123 1204 0 125 120 126 121 ?1 29
 124 1203 0 126 127 121 .018 .024 .0275 18 126 1201 0 128 123 129 124 ?1 29 127
 1200 0 129 130 124 .01715371679840845 .024 .028 18 129 1198 0 131 126 132 127 ?
1 29 130 1197 0 132 133 127 -.01715371679840845 .024 .028 18 132 1195 0 134 129
 135 130 ?1 29 133 1194 0 135 136 130 -.018 .024 .0275 18 135 1192 0 23 132 137
 133 ?1 29 136 1191 0 137 138 133 -.02615817271905665 .024 .015 18 137 1189 0 13
9 135 140 136 ?1 29 138 1176 0 140 141 136 .0345 .01028348190060152 -.0145 18 14
0 1174 0 142 137 143 138 ?1 29 141 1173 0 143 144 138 .0345 .01028348190060152 .
0145 18 143 1171 0 145 140 146 141 ?1 29 144 1170 0 146 147 141 .026832815729997
45 .024 .0145 18 146 1168 0 148 143 149 144 ?1 29 147 1167 0 149 150 144 .026832
81572999745 .024 -.0145 18 149 1165 0 151 146 152 147 ?1 29 150 901 0 152 153 14
7 .018 -.024 .015 18 152 758 0 154 149 155 150 ?1 29 153 903 0 155 156 150 -.018
 -.024 .015 18 155 756 0 157 152 158 153 ?1 29 156 909 0 158 159 153 -.018 .024
 .015 18 158 763 0 160 155 161 156 ?1 29 159 911 0 161 0 156 .018 .024 .015 18 1
61 761 0 162 158 0 159 ?1 17 162 0 163 164 128 161 165 166 0 167 -15 163 806 0 1
68 169 0 17 164 0 163 148 162 123 167 170 0 0 +17 128 0 163 162 171 126 131 172
 0 165 +17 165 0 173 72 174 126 162 166 0 175 +16 166 669 0 ?165 170 176 177 0 0
 1 17 167 0 178 179 180 161 164 170 0 174 -15 178 635 0 181 182 0 17 179 0 178 1
83 167 152 174 184 0 0 -17 180 0 178 167 181 123 185 186 0 164 +16 170 750 0 ?16
4 187 166 188 189 189 1 17 174 0 173 165 154 161 179 184 0 0 +15 173 576 0 165 1
90 0 17 154 0 173 174 72 152 191 192 0 193 +16 184 568 0 ?174 194 195 196 194 19
4 1 16 194 562 0 ?197 198 184 196 184 184 1 16 195 1412 0 ?199 184 200 201 0 0 1
 31 196 82 0 184 201 202 0 +0 0 .015 0 0 1 1 0 0 .03 30 201 323 0 195 203 196 0
 +-.0345 -.01028348190060154 .015 0 0 -1 30 202 107 0 198 196 204 0 +.0345 0 -.0
15 0 -1 0 16 198 1268 0 ?205 206 194 202 0 0 1 30 204 112 0 206 202 207 0 +-.034
5 0 -.015 0 1 0 16 206 1262 0 ?208 209 198 204 0 0 1 38 207 461 0 210 204 211 0
 +212 213 214 215 215 16 210 487 0 ?216 217 218 207 0 0 1 38 211 467 0 217 207 2
19 0 +212 213 220 221 221 51 212 440 0 222 213 223 224 +0 0 -.015 0 0 1 .018 1 0
 0 51 213 514 0 225 226 212 227 +.0345 0 0 -1 0 0 .0075 0 0 1 40 21 214 0 1 21 .
000483505601838607 .366620418957156 ??-.018 0 .0075 -.0178435691112934 .00236791
9206919065 .00711638662732034 -.0174371236938185 .0044661747935424 .006025220553
10231 -.0169088025612941 .00617190375355729 .004261174023297515 -.01647329054836
74 .00725470182082413 .00190244618608019 -.01637365285715695 .00747686378860259
 -.000588649205115649 -.0166055757150959 .00694657146873317 -.002827568713538605
 -.017056832248205 .00575017161975142 -.00481513513241376 -.01758533695111795 .0
038413440767062 -.00644158953088089 -.01794420968371535 .001416099864718694 -.00
736509749922862 -.0179701390586353 -.00103638902604693 -.0074280480468754 -.0177
032977107805 -.00325472735624264 -.00675697786266359 -.01723442560676465 -.00519
370522891841 -.00541067703666608 -.01670872476328755 -.0066946633062986 -.003381
0476505514 -.0163877758453544 -.00744585809980412 -.0008995538658587 -.016432491
09264265 -.00734664797647333 .00150889479745286 -.0167638267548065 -.00655546432
640997 .0036436091262876 -.0172687107700191 -.00507854588848289 .005518910368775
12 -.01776204579222985 -.00291714402708017 .0069094334590667 -.01799498429946535
 -.0004249000611864955 .00748795432264405 -.018 -1205206401483924e-34 .0075 41 1
 215 H-.018 -1205206401483924e-34 .0075 14 225 491 228 ?169 229 230 5 213 -229 2
29 169 229 22 50 226 860 0 231 232 213 233 +.0430236220472441 -.024 .028 -161281
0259509915e-31 1 0 -1 -1612810259509915e-31 0 141 227 207 234 234 213 141 234 21
1 227 227 213 14 231 795 235 ?236 169 237 5 226 -0 0 236 169 22 50 232 862 0 169
 238 226 239 +.0430236220472441 .024 .028 1612810259509915e-31 -1 0 1 1612810259
509915e-31 0 141 233 240 241 242 226 38 240 1377 0 243 244 245 0 +6 226 246 247
 248 141 241 249 250 233 226 141 242 245 233 251 226 38 245 1383 0 252 240 253 0
 +18 226 254 255 256 141 251 253 242 257 226 38 253 1389 0 258 245 259 0 +260 22
6 261 262 263 141 257 259 251 250 226 38 259 1395 0 264 253 265 0 +266 226 267 2
68 269 141 250 265 257 241 226 38 265 1401 0 270 259 249 0 +271 226 272 273 274
 16 270 1399 0 ?110 275 264 265 0 0 1 38 249 1407 0 275 265 276 0 +277 226 278 2
79 280 54 271 1612 0 281 277 282 283 +0 0 -.0145 0 0 1 .0355 5e-4 1 0 0 40 6 272
 0 1 6 4192818787711175e-20 .359988793900522 ??-.0268328157299975 -.024 -.0145 -
.0268078941482979 -.024 -.01463500633156102 -.0267399794675499 -.024 -.014753696
74742552 -.02660172302697775 -.024 -.0148773066322064 -.0263752315178056 -.024 -
.01497362706822834 -.02615817271905665 -.024 -.015 41 1 273 L-.0268328157299975
 -.024 -.0145 41 1 274 L-.02615817271905665 -.024 -.015 14 281 1600 284 ?285 286
 287 5 271 +0 0 285 286 22 54 277 1591 0 286 288 271 289 +0 0 -.0145 0 0 1 .0355
 5e-4 1 0 0 54 282 1633 0 285 271 290 291 +0 0 -.0145 0 0 1 .0355 5e-4 1 0 0 141
 283 265 292 292 271 141 292 293 283 283 271 38 293 1461 0 294 295 296 0 +271 29
7 298 299 300 16 294 1459 0 ?48 301 39 293 0 0 1 38 295 1455 0 39 302 293 0 +282
 297 303 304 305 31 296 1467 0 301 293 306 0 -0 0 .0145 0 0 1 1 0 0 .036 50 297
 318 0 307 223 308 309 +-.0345 -.0595201079865015 .053 1 0 0 0 0 -1 40 9 298 0 1
 9 830960934562344e-19 .336377922419645 ??-.0345 -.00836660026534074 -.015 -.034
5 -.00936660026534074 -.01493365115039774 -.0345 -.00968608497502241 -.014872147
18018448 -.0345 -.00990480906635119 -.01480826491688386 -.0345 -.010118256823300
84 -.0147113137161552 -.0345 -.01019726939908168 -.0146546936000367 -.0345 -.010
260832895716 -.01458013377797196 -.0345 -.0102805106325042 -.01452911900912744 -
.0345 -.01028348190060202 -.0145 41 1 299 L-.0345 -.00836660026534074 -.015 41 1
 300 L-.0345 -.01028348190060202 -.0145 14 307 262 310 ?222 311 312 5 297 -0 0 2
22 311 22 50 223 320 0 311 212 297 313 +.0345 -.0595201079865015 .053 -1 0 0 0 0
 1 50 308 81 0 314 297 315 0 +0 0 .028 0 0 1 1 0 0 141 309 316 317 318 297 38 31
6 1443 0 319 320 302 0 +260 297 321 322 323 141 317 293 324 309 297 141 318 302
 309 324 297 38 302 1449 0 31 316 295 0 +325 297 326 327 328 141 324 295 318 317
 297 16 31 1447 0 ?25 39 319 302 0 0 1 54 325 1696 0 329 266 260 330 +0 0 .0145
 0 0 1 .0355 5e-4 1 0 0 40 9 326 0 1 9 830960934562345e-19 .3363779224196155 ??-
.0345 .00836660026534074 .015 -.0345 .00936660026534074 .01493365115039774 -.034
5 .00968608497502241 .01487214718018448 -.0345 .00990480906635119 .0148082649168
8386 -.0345 .01011825682330086 .01471131371615518 -.0345 .01019726939908168 .014
6546936000367 -.0345 .01026083289571598 .01458013377797196 -.0345 .0102805106325
042 .01452911900912744 -.0345 .01028348190060202 .0145 41 1 327 L-.0345 .0083666
0026534074 .015 41 1 328 L-.0345 .01028348190060202 .0145 14 329 1684 331 ?332 3
33 334 5 325 +0 0 332 333 22 54 266 1675 0 333 290 325 335 +0 0 .0145 0 0 1 .035
5 5e-4 1 0 0 54 260 1717 0 332 325 18 336 +0 0 .0145 0 0 1 .0355 5e-4 1 0 0 141
 330 337 338 338 325 38 337 1233 0 339 340 341 0 +325 232 342 343 344 141 338 30
2 330 330 325 16 339 1231 0 ?139 345 172 337 0 0 1 38 340 1227 0 172 346 337 0 +
18 232 347 348 349 38 341 1239 0 345 337 350 0 +290 232 351 352 353 40 6 342 0 1
 6 4192818787710695e-20 .3599887939005125 ??-.02683281572999745 .024 .0145 -.026
80789414829785 .024 .01463500633156102 -.0267399794675499 .024 .0147536967474255
2 -.02660172302697775 .024 .0148773066322064 -.0263752315178056 .024 .0149736270
6822832 -.02615817271905665 .024 .015 41 1 343 L-.02683281572999745 .024 .0145 4
1 1 344 L-.02615817271905665 .024 .015 16 345 1237 0 ?148 354 339 341 0 0 1 38 3
50 1245 0 354 341 355 0 +282 232 356 357 358 54 290 1654 0 359 282 266 360 +0 0
 .0145 0 0 1 .0355 5e-4 1 0 0 40 6 351 0 1 6 393541313312251e-19 .32995961279239
85 ??.02615817271905665 .024 .015 .02640817271905665 .024 .01496466992205066 .02
66205462194643 .024 .0148646819095969 .02674817208352665 .024 .01474304450265562
 .02681426379846675 .024 .0146167669426478 .02683281572999745 .024 .0145 41 1 35
2 L.02615817271905665 .024 .015 41 1 353 L.02683281572999745 .024 .0145 14 359 1
642 361 ?333 285 362 5 290 +0 0 333 285 22 141 360 341 363 363 290 141 363 364 3
60 360 290 38 364 1317 0 365 366 367 0 +290 223 368 369 370 16 365 1315 0 ?93 37
1 372 364 0 0 1 38 366 1311 0 372 373 364 0 +266 223 374 375 376 38 367 1323 0 3
71 364 377 0 +277 223 378 379 380 40 6 368 0 1 6 .000251929461809266 .3727125066
83422 ??.0345 .01028348190060152 .0145 .0345 .01027268146211406 .014555445222256
68 .0345 .01023629607399694 .0146151929529835 .0345 .01014318352281412 .01469554
832960184 .0345 .00980369842429348 .0148407639163302 .0345 .0083666002653407 .01
5 41 1 369 L.0345 .01028348190060152 .0145 41 1 370 L.0345 .0083666002653407 .01
5 16 371 1321 0 ?96 381 365 367 0 0 1 38 377 1329 0 381 367 382 0 +288 223 383 3
84 385 40 6 378 0 1 6 .0002519294618093295 .3727125066834065 ??.0345 -.010283481
90060152 -.0145 .0345 -.01027268146211406 -.01455544522225666 .0345 -.0102362960
7399696 -.0146151929529835 .0345 -.01014318352281412 -.01469554832960182 .0345 -
.00980369842429357 -.01484076391633016 .0345 -.0083666002653407 -.015 41 1 379 L
.0345 -.01028348190060152 -.0145 41 1 380 L.0345 -.0083666002653407 -.015 16 381
 1327 0 ?142 386 371 377 0 0 1 31 382 1341 0 386 377 244 0 -0 0 .0145 0 0 1 1 0
 0 .036 54 288 1570 0 387 388 277 389 +0 0 -.0145 0 0 1 .0355 5e-4 1 0 0 40 9 38
3 0 1 9 830960934562331e-19 .3363779224197195 ??.0345 .0083666002653407 -.015 .0
345 .0093666002653407 -.01493365115039774 .0345 .00968608497502234 -.01487214718
01845 .0345 .00990480906635113 -.01480826491688386 .0345 .0101182568233008 -.014
7113137161552 .0345 .01019726939908164 -.0146546936000367 .0345 .010260832895715
94 -.01458013377797194 .0345 .0102805106325042 -.01452911900912744 .0345 .010283
48190060198 -.0145 41 1 384 L.0345 .0083666002653407 -.015 41 1 385 L.0345 .0102
8348190060198 -.0145 14 387 1558 390 ?286 391 392 5 288 +0 0 286 391 22 51 388 2
8 0 393 394 288 0 -0 0 .015 0 0 -1 .036 -1 0 0 141 389 355 395 395 288 38 355 12
51 0 396 350 397 0 +288 232 398 399 400 141 395 377 389 389 288 16 396 1249 0 ?1
22 401 354 355 0 0 1 31 397 1275 0 401 355 402 0 -0 0 -.015 0 0 1 1 0 0 .0355 40
 6 398 0 1 6 41928187877109e-18 .359988793900523 ??.02683281572999745 .024 -.014
5 .02680789414829785 .024 -.01463500633156102 .0267399794675499 .024 -.014753696
74742552 .0266017230269777 .024 -.0148773066322064 .0263752315178056 .024 -.0149
7362706822834 .02615817271905665 .024 -.015 41 1 399 L.02683281572999745 .024 -.
0145 41 1 400 L.02615817271905665 .024 -.015 16 401 1273 0 ?119 403 396 397 0 0
 1 31 402 1281 0 403 397 404 0 -0 0 -.015 0 0 1 1 0 0 .0355 16 403 1279 0 ?104 4
05 401 402 0 0 1 31 404 1287 0 405 402 373 0 -0 0 -.015 0 0 1 1 0 0 .0355 16 405
 1285 0 ?107 406 403 404 0 0 1 31 373 1293 0 406 404 366 0 -0 0 -.015 0 0 1 1 0
 0 .0355 16 406 1291 0 ?99 372 405 373 0 0 1 17 99 0 407 205 408 97 409 406 0 41
0 +16 372 1309 0 ?84 365 406 366 0 0 1 17 84 0 411 412 413 82 90 372 0 414 +15 4
11 269 0 410 311 0 17 412 0 411 96 84 85 414 415 0 0 -17 413 0 411 84 93 88 181
 416 0 0 +17 90 0 417 418 419 88 84 372 0 420 -17 414 0 421 81 422 82 412 415 0
 419 +15 421 639 0 423 15 0 17 81 0 421 423 414 79 419 386 0 424 +17 422 0 421 4
14 423 85 425 426 0 412 +16 415 1304 0 ?414 416 427 428 0 0 1 17 419 0 417 90 42
9 82 81 386 0 0 -15 417 1664 0 429 333 0 17 429 0 417 419 418 79 75 264 0 0 -16
 386 1339 0 ?81 426 381 382 0 0 1 16 426 1345 0 ?422 243 386 244 0 0 1 16 243 13
75 0 ?63 252 426 240 0 0 1 31 244 1347 0 426 382 240 0 +0 0 -.0145 0 0 1 1 0 0 .
036 17 63 0 237 157 430 61 66 243 0 431 +16 252 1381 0 ?69 258 243 245 0 0 1 17
 69 0 237 430 191 67 432 252 0 433 +16 258 1387 0 ?54 264 252 253 0 0 1 17 54 0
 237 434 435 52 60 258 0 436 +16 264 1393 0 ?75 270 258 259 0 0 1 17 75 0 237 19
3 424 73 429 264 0 183 +15 237 798 0 437 231 0 17 193 0 237 191 75 152 183 438 0
 179 +17 424 0 237 75 78 79 423 439 0 429 -17 183 0 178 420 179 73 193 438 0 418
 -17 420 0 178 181 183 88 418 440 0 413 +16 438 1352 0 ?193 439 192 441 442 442
 1 17 418 0 417 429 90 73 420 440 0 0 -16 440 1477 0 ?420 186 443 444 0 0 1 16 1
86 1483 0 ?180 445 440 446 0 0 1 16 443 1471 0 ?40 440 301 306 0 0 1 31 444 1479
 0 440 306 446 0 +0 0 .015 0 0 1 1 0 0 .0355 31 306 1473 0 443 296 444 0 +0 0 -.
0145 0 0 1 1 0 0 .036 31 446 1485 0 186 444 447 0 +0 0 .015 0 0 1 1 0 0 .0355 31
 447 1491 0 445 446 448 0 +0 0 .015 0 0 1 1 0 0 .0355 16 445 1489 0 ?449 450 186
 447 0 0 1 31 448 1497 0 450 447 451 0 +0 0 .015 0 0 1 1 0 0 .0355 16 450 1495 0
 ?452 453 445 448 0 0 1 31 451 1503 0 453 448 454 0 +0 0 .028 0 0 1 1 0 0 .0295
 16 453 1501 0 ?455 456 450 451 0 0 1 31 454 1509 0 456 451 20 0 +0 0 .028 0 0 1
 1 0 0 .0295 16 456 1507 0 ?457 24 453 454 0 0 1 31 20 1515 0 24 454 7 0 -0 0 .0
275 0 0 1 1 0 0 .03 16 24 1513 0 ?72 10 456 20 0 0 1 17 72 0 173 154 165 70 175
 24 0 191 +17 175 0 458 131 432 126 72 24 0 0 -17 191 0 237 69 193 70 154 192 0
 432 -16 192 1355 0 ?154 438 459 460 0 0 1 17 432 0 458 175 461 70 69 252 0 0 -1
5 458 1727 0 432 462 0 17 461 0 458 432 131 67 457 456 0 0 -17 131 0 458 461 175
 129 128 172 0 457 -17 457 0 463 464 433 129 461 456 0 171 +15 463 555 0 433 314
 465 17 464 0 463 455 457 132 171 209 0 466 -17 433 0 463 457 455 67 430 467 0 4
61 -17 171 0 163 128 134 129 464 209 0 0 +17 134 0 163 171 468 132 469 470 0 464
 +16 209 1196 0 ?171 467 206 219 0 0 1 16 467 1358 0 ?430 471 209 472 0 0 1 30 2
19 551 0 209 211 472 0 +-38707446228238e-31 .024 .028 1 1612810259509915e-31 0 3
0 472 556 0 467 219 473 0 +3870744622823795e-33 -.024 .028 -1 -1612810259509915e
-31 0 31 473 1179 0 471 472 474 0 -0 0 .0145 0 0 1 1 0 0 .036 16 471 1177 0 ?145
 475 467 473 0 0 1 31 474 1185 0 475 473 346 0 +0 0 -.0145 0 0 1 1 0 0 .036 16 4
75 1183 0 ?476 470 471 474 0 0 1 38 346 1221 0 470 474 340 0 +6 232 477 478 479
 16 470 1219 0 ?134 172 475 346 0 0 1 40 6 477 0 1 6 505546949654213e-19 .388335
423504327 ??-.018 .024 .0275 -.01797600372991995 .024 .0276190986917179 -.017913
1633893307 .024 .0277220701874545 -.01777148738127855 .024 .0278433695725182 -.0
174934283553918 .024 .02795876983611015 -.01715371679840845 .024 .028 41 1 478 L
-.018 .024 .0275 41 1 479 L-.01715371679840845 .024 .028 16 172 1225 0 ?128 339
 470 340 0 0 1 17 476 0 480 481 482 149 483 475 0 168 +15 480 26 0 482 393 0 17
 481 0 480 145 476 146 168 187 0 484 +17 482 0 480 476 145 140 485 486 0 483 +17
 483 0 392 487 151 140 476 475 0 0 -17 168 0 163 122 148 149 481 187 0 0 -17 122
 0 163 488 168 120 151 396 0 408 +17 148 0 163 168 164 146 125 345 0 481 +16 187
 1166 0 ?481 489 170 490 0 0 1 16 489 1193 0 ?160 189 187 491 0 0 1 30 490 873 0
 187 188 491 0 -.02683281572999745 .024 .015 0 0 -1 30 188 874 0 170 177 490 0 +
-38707446228238e-31 .024 .015 1 1612810259509915e-31 0 30 491 872 0 489 490 492
 0 +-.018 .024 .028 0 0 -1 30 492 871 0 493 491 494 0 +-.02683281572999745 .024
 .015 0 0 -1 16 493 1214 0 ?495 496 189 492 0 0 1 30 494 870 0 496 492 441 0 --.
018 -.024 .028 0 0 -1 16 496 657 0 ?431 442 493 494 0 0 1 30 441 869 0 442 494 4
97 0 +3870744622823795e-33 -.024 .015 -1 -1612810259509915e-31 0 16 442 742 0 ?4
35 459 496 441 438 438 1 30 497 868 0 459 441 460 0 --.0268328157299975 -.024 .0
15 0 0 -1 16 459 1370 0 ?436 192 442 497 0 0 1 30 460 867 0 192 497 498 0 +.018
 -.024 .028 0 0 -1 30 498 866 0 439 460 499 0 +.0268328157299975 -.024 .015 0 0
 -1 16 439 1334 0 ?423 500 438 498 0 0 1 31 499 518 0 218 498 501 0 +.0345 0 0 -
1 0 0 0 0 1 .0075 16 218 483 0 ?502 210 500 499 0 0 1 31 501 517 0 500 499 503 0
 +-.0345 0 0 -1 0 0 0 0 1 .0075 16 500 488 0 ?504 218 439 501 0 0 1 31 503 444 0
 427 501 505 0 +0 0 -.015 0 0 1 1 0 0 .018 16 427 421 0 ?506 415 507 503 0 0 1 3
1 505 443 0 507 503 428 0 +0 0 .028 0 0 1 1 0 0 .018 16 507 424 0 ?508 427 217 5
05 0 0 1 30 428 328 0 415 505 509 0 -.0345 -.01028348190060152 .015 0 0 -1 30 50
9 327 0 416 428 510 0 +.0345 0 .015 0 -1 0 16 416 1298 0 ?413 486 415 509 0 0 1
 30 510 326 0 486 509 511 0 +.0345 .01028348190060152 .015 0 0 -1 16 486 1172 0
 ?482 512 416 510 0 0 1 30 511 325 0 512 510 203 0 --.0345 .01028348190060154 .0
15 0 0 -1 16 512 1436 0 ?32 200 486 511 0 0 1 30 203 324 0 200 511 201 0 +-.0345
 0 .015 0 1 0 16 200 1430 0 ?29 195 512 203 0 0 1 17 29 0 27 25 45 34 513 200 0
 0 +15 27 265 0 514 307 0 17 45 0 27 29 515 41 516 319 0 513 +17 513 0 517 449 4
52 41 29 200 0 518 -15 517 631 0 519 520 0 17 449 0 517 521 513 58 518 445 0 435
 +17 452 0 517 513 519 34 522 450 0 29 +17 518 0 523 516 60 41 449 445 0 0 -15 5
23 1706 0 516 332 0 17 516 0 523 524 518 49 45 319 0 0 -17 60 0 523 518 524 58 5
4 258 0 449 -17 524 0 523 60 516 52 51 525 0 0 -17 51 0 526 199 436 49 524 525 0
 515 +16 525 1417 0 ?51 527 275 276 0 0 1 16 527 1423 0 ?528 319 525 320 0 0 1 1
6 275 1405 0 ?78 525 270 249 0 0 1 31 276 1419 0 525 249 320 0 -0 0 .0145 0 0 1
 1 0 0 .036 31 320 1425 0 527 276 316 0 +0 0 -.0145 0 0 1 1 0 0 .036 17 78 0 237
 424 437 76 529 275 0 423 +17 437 0 237 78 110 105 530 531 0 529 +17 529 0 532 5
33 425 105 78 275 0 0 -17 423 0 421 422 81 76 424 439 0 425 +17 425 0 532 529 87
 76 422 426 0 0 -15 532 1580 0 529 286 0 17 87 0 532 425 533 85 96 371 0 422 -17
 533 0 532 87 529 94 107 405 0 0 -17 96 0 411 410 412 94 87 371 0 205 +17 410 0
 411 142 96 97 205 198 0 487 -17 205 0 407 107 99 94 410 198 0 533 +15 407 17 0
 408 534 0 17 107 0 407 530 205 105 533 405 0 437 +17 530 0 407 104 107 108 437
 531 0 535 -17 104 0 407 208 530 102 535 403 0 514 +16 531 1256 0 ?437 176 536 5
37 0 0 1 17 535 0 287 57 538 108 104 403 0 0 -15 287 1601 0 538 281 0 17 57 0 28
7 539 535 55 110 270 0 528 -17 538 0 287 535 539 102 48 294 0 0 -17 539 0 287 53
8 57 46 528 527 0 0 -17 48 0 27 515 514 46 538 294 0 199 +17 515 0 27 45 48 49 1
99 195 0 516 -17 514 0 27 48 38 102 208 206 0 538 -17 199 0 526 528 51 46 515 19
5 0 539 +15 526 132 0 199 540 0 17 528 0 526 436 199 55 539 527 0 434 +17 436 0
 526 51 528 52 434 459 0 524 +17 434 0 237 110 54 55 436 459 0 0 -17 110 0 237 4
37 434 108 57 270 0 530 +14 540 133 541 ?520 190 526 5 388 -393 542 520 190 22 8
1 1 541 1905 543 540 0 0 544 545 546 14 520 57 545 ?393 540 517 5 547 +182 182 3
93 540 22 14 190 577 544 ?540 542 173 5 315 -548 548 540 542 22 14 393 25 549 ?5
34 520 480 5 388 -15 540 534 520 22 14 542 613 550 ?190 182 551 5 388 -540 15 19
0 182 22 13 22 8 0 0 0 0 0 0 9 15 14 15 640 552 ?182 0 421 5 388 -542 393 182 0
 22 81 1 552 1901 543 15 0 0 0 553 554 14 182 632 553 ?542 15 178 5 547 +520 520
 542 15 22 81 1 553 1902 543 182 0 0 552 550 555 50 547 2 0 520 315 394 0 +0 0 .
015 0 0 1 1 0 0 51 315 79 0 548 308 547 0 -0 0 .028 0 0 -1 .03 -1 0 0 50 394 22
 0 534 547 388 0 +0 0 -.015 0 0 1 1 0 0 14 534 16 556 ?548 393 557 5 394 -0 0 54
8 393 22 81 1 556 1908 543 534 0 0 549 558 559 14 548 66 558 ?314 534 560 5 315
 -190 190 314 534 22 15 557 415 0 506 534 407 17 506 0 557 506 506 0 561 427 0 0
 +17 561 0 562 561 561 0 506 427 0 0 -15 562 430 0 561 222 563 14 222 427 564 ?2
29 307 565 5 212 -0 0 229 307 22 15 563 431 0 508 222 0 17 508 0 563 508 508 0 5
66 507 0 0 +17 566 0 465 566 566 0 508 507 0 0 -15 465 410 0 566 314 0 14 314 71
 567 ?311 548 568 5 308 +0 0 311 548 22 81 1 567 1910 543 314 0 0 558 569 570 14
 311 266 569 ?307 314 571 5 223 -0 0 307 314 22 15 568 1070 0 572 314 573 17 572
 0 568 572 572 0 574 575 0 0 -15 573 1039 0 576 314 577 17 576 0 573 576 576 0 5
78 579 0 0 -15 577 1008 0 580 314 581 17 580 0 577 580 580 0 582 583 0 0 -15 581
 977 0 584 314 463 17 584 0 581 584 584 0 585 586 0 0 -17 585 0 587 585 585 0 58
4 586 0 0 +16 586 985 0 ?585 536 588 589 0 0 1 16 536 982 0 ?590 531 586 591 0 0
 1 16 588 1013 0 ?592 586 583 593 0 0 1 31 589 1004 0 586 591 537 0 +-.020351596
9889343 .01175 .028 0 0 1 1 0 0 .003 31 591 1005 0 536 594 589 0 +-.020351596988
9343 .01175 .016 0 0 1 1 0 0 .003 30 537 894 0 531 589 595 0 +.0430236220472441
 -.024 -.015 1 1612810259509915e-31 0 30 595 892 0 176 537 177 0 +.0430236220472
441 .024 -.015 -1 -1612810259509915e-31 0 16 176 1208 0 ?488 166 531 595 0 0 1 3
0 177 875 0 166 595 188 0 -.018 .024 .028 0 0 -1 17 488 0 163 113 122 117 408 17
6 0 596 +17 113 0 163 597 488 111 596 354 0 495 +17 408 0 407 99 119 120 488 176
 0 409 -17 596 0 35 37 36 117 113 354 0 0 -15 35 1622 0 596 285 0 17 37 0 35 33
 596 100 119 401 0 0 -17 36 0 35 596 33 111 40 443 0 0 -16 354 1243 0 ?113 396 3
45 350 0 0 1 17 40 0 551 32 495 26 36 443 0 28 +15 551 612 0 495 542 0 17 32 0 5
51 116 40 11 28 512 0 598 +17 495 0 551 40 116 111 597 493 0 36 +17 28 0 27 38 2
5 26 32 512 0 0 -17 38 0 27 514 28 100 33 39 0 208 +16 39 1453 0 ?38 294 31 295
 0 0 1 17 208 0 407 119 104 100 514 206 0 37 +17 119 0 407 408 208 117 37 401 0
 488 +17 116 0 551 495 32 114 598 301 0 597 +17 597 0 163 139 113 114 495 493 0
 599 -17 139 0 163 600 597 137 599 339 0 519 +17 599 0 334 598 522 114 139 339 0
 0 -15 334 1685 0 599 329 0 17 598 0 334 30 599 11 116 301 0 0 -17 522 0 334 599
 30 137 452 450 0 0 -17 30 0 334 522 598 34 25 31 0 452 -16 301 1465 0 ?116 443
 294 296 0 0 1 17 600 0 163 468 139 158 519 189 0 601 +17 519 0 517 452 601 137
 600 189 0 522 -17 601 0 517 519 521 158 197 194 0 0 -16 189 1190 0 ?600 493 489
 188 170 170 1 17 521 0 517 601 449 155 435 442 0 197 -17 197 0 560 431 160 155
 601 194 0 0 +15 560 70 0 431 548 0 17 431 0 560 23 197 61 157 496 0 602 +17 160
 0 560 197 23 158 468 489 0 600 +17 23 0 560 160 431 135 602 10 0 468 +17 468 0
 163 134 600 135 160 489 0 469 -17 469 0 603 602 466 135 134 470 0 0 -15 603 174
8 0 469 17 0 17 602 0 603 66 469 61 23 10 0 0 -17 466 0 603 469 66 132 455 453 0
 0 -17 66 0 603 466 602 64 63 243 0 455 -17 455 0 463 433 464 64 466 453 0 430 +
17 430 0 237 63 69 64 433 467 0 0 +14 17 1747 604 ?0 462 603 5 6 +0 0 0 462 22 8
1 1 604 1935 543 17 0 0 605 0 606 14 462 1726 605 ?17 332 458 5 18 +0 0 17 332 2
2 81 1 605 1934 543 462 0 0 607 604 608 14 332 1705 607 ?462 329 523 5 260 +0 0
 462 329 22 54 18 1738 0 462 260 6 609 +0 0 .0275 0 0 1 .0295 5e-4 1 0 0 141 609
 340 610 610 18 141 610 245 609 609 18 81 1 607 1933 543 332 0 0 331 605 611 80
 1 543 0 612 8001 0 0 0 0 3 5 0 0 0 FFFFTFTFFFFFFF2 81 1 331 1932 543 329 0 0 61
3 607 614 83 3 611 .529411764705882 .549019607843137 .549019607843137 81 1 613 1
931 543 333 0 0 361 331 615 83 3 614 .529411764705882 .549019607843137 .54901960
7843137 14 333 1663 613 ?329 359 417 5 266 +0 0 329 359 22 81 1 361 1930 543 359
 0 0 616 613 617 83 3 615 .529411764705882 .549019607843137 .549019607843137 81
 1 616 1929 543 285 0 0 284 361 618 83 3 617 .529411764705882 .549019607843137 .
549019607843137 14 285 1621 616 ?359 281 35 5 282 +0 0 359 281 22 81 1 284 1928
 543 281 0 0 619 616 620 83 3 618 .529411764705882 .549019607843137 .54901960784
3137 81 1 619 1927 543 286 0 0 390 284 621 83 3 620 .529411764705882 .5490196078
43137 .549019607843137 14 286 1579 619 ?281 387 532 5 277 +0 0 281 387 22 81 1 3
90 1926 543 387 0 0 622 619 623 83 3 621 .529411764705882 .549019607843137 .5490
19607843137 81 1 622 1925 543 391 0 0 624 390 625 83 3 623 .529411764705882 .549
019607843137 .549019607843137 14 391 1086 622 ?387 626 627 5 628 +0 0 387 626 22
 81 1 624 1924 543 626 0 0 629 622 630 83 3 625 .529411764705882 .54901960784313
7 .549019607843137 14 626 1081 624 ?391 631 632 5 633 -0 0 391 631 22 81 1 629 1
923 543 631 0 0 634 624 635 83 3 630 .529411764705882 .549019607843137 .54901960
7843137 14 631 1055 629 ?626 636 637 5 638 +0 0 626 636 22 81 1 634 1922 543 636
 0 0 639 629 640 83 3 635 .529411764705882 .549019607843137 .549019607843137 14
 636 1050 634 ?631 641 642 5 643 -0 0 631 641 22 81 1 639 1921 543 641 0 0 644 6
34 645 83 3 640 .529411764705882 .549019607843137 .549019607843137 14 641 1024 6
39 ?636 646 647 5 648 +0 0 636 646 22 81 1 644 1920 543 646 0 0 649 639 650 83 3
 645 .529411764705882 .549019607843137 .549019607843137 14 646 1019 644 ?641 651
 652 5 653 -0 0 641 651 22 81 1 649 1919 543 651 0 0 654 644 655 83 3 650 .52941
1764705882 .549019607843137 .549019607843137 14 651 993 649 ?646 236 656 5 657 +
0 0 646 236 22 81 1 654 1918 543 236 0 0 235 649 658 83 3 655 .529411764705882 .
549019607843137 .549019607843137 14 236 988 654 ?651 231 659 5 238 -0 0 651 231
 22 81 1 235 1917 543 231 0 0 660 654 661 83 3 658 .529411764705882 .54901960784
3137 .549019607843137 81 1 660 1916 543 169 0 0 228 235 662 83 3 661 .5294117647
05882 .549019607843137 .549019607843137 14 169 803 660 ?231 225 163 5 232 -0 0 2
31 225 22 81 1 228 1915 543 225 0 0 663 660 664 83 3 662 .529411764705882 .54901
9607843137 .549019607843137 81 1 663 1914 543 229 0 0 564 228 665 83 3 664 .5294
11764705882 .549019607843137 .549019607843137 14 229 496 663 ?225 222 666 5 213
 -225 225 225 222 22 81 1 564 1913 543 222 0 0 310 663 667 83 3 665 .52941176470
5882 .549019607843137 .549019607843137 81 1 310 1912 543 307 0 0 569 564 668 83
 3 667 .529411764705882 .549019607843137 .549019607843137 81 1 569 1911 543 311
 0 0 567 310 669 83 3 668 .529411764705882 .549019607843137 .549019607843137 83
 3 669 .529411764705882 .549019607843137 .549019607843137 15 666 499 0 504 229 6
70 17 504 0 666 504 504 0 671 500 0 0 +15 670 500 0 672 229 0 17 672 0 670 672 6
72 0 216 210 0 0 -17 216 0 673 216 216 0 672 210 0 0 +15 673 459 0 216 222 562 1
7 671 0 312 671 671 0 504 500 0 0 -15 312 471 0 671 307 27 15 659 991 0 674 236
 587 51 238 1001 0 236 657 232 0 +-.0203515969889343 .01175 .016 0 0 1 .003 1 0
 0 50 657 1003 0 651 653 238 0 +-.0203515969889343 .01175 .016 0 0 1 1 0 0 51 65
3 1032 0 646 648 657 0 +-.0203515969889343 -.01175 .016 0 0 1 .003 1 0 0 50 648
 1034 0 641 643 653 0 +-.0203515969889343 -.01175 .016 0 0 1 1 0 0 51 643 1063 0
 636 638 648 0 +.0203515969889343 -.01175 .016 0 0 1 .003 1 0 0 50 638 1065 0 63
1 633 643 0 +.0203515969889343 -.01175 .016 0 0 1 1 0 0 51 633 1094 0 626 628 63
8 0 +.0203515969889343 .01175 .016 0 0 1 .003 1 0 0 50 628 1096 0 391 0 633 0 +.
0203515969889343 .01175 .016 0 0 1 1 0 0 17 674 0 659 674 674 0 590 536 0 0 -15
 587 992 0 585 236 0 17 590 0 656 590 590 0 674 536 0 0 +15 656 995 0 590 651 0
 15 652 1022 0 675 646 676 17 675 0 652 675 675 0 592 588 0 0 -15 676 1023 0 582
 646 0 17 582 0 676 582 582 0 580 583 0 0 +16 583 1016 0 ?582 588 677 594 0 0 1
 16 677 1044 0 ?678 583 579 679 0 0 1 31 594 1035 0 583 593 591 0 +-.02035159698
89343 -.01175 .028 0 0 1 1 0 0 .003 31 593 1036 0 588 680 594 0 +-.0203515969889
343 -.01175 .016 0 0 1 1 0 0 .003 31 680 1066 0 579 679 593 0 +.0203515969889343
 -.01175 .028 0 0 1 1 0 0 .003 16 579 1047 0 ?578 677 681 680 0 0 1 31 679 1067
 0 677 682 680 0 +.0203515969889343 -.01175 .016 0 0 1 1 0 0 .003 31 682 1097 0
 575 683 679 0 +.0203515969889343 .01175 .028 0 0 1 1 0 0 .003 16 575 1078 0 ?57
4 681 0 682 0 0 1 31 683 1098 0 681 0 682 0 +.0203515969889343 .01175 .016 0 0 1
 1 0 0 .003 16 681 1075 0 ?684 579 575 683 0 0 1 17 684 0 627 684 684 0 685 681
 0 0 +15 627 1088 0 684 391 0 17 685 0 632 685 685 0 684 681 0 0 -15 632 1084 0
 685 626 686 15 686 1085 0 574 626 0 17 574 0 686 574 574 0 572 575 0 0 +17 578
 0 687 578 578 0 576 579 0 0 +15 687 1054 0 578 636 0 17 678 0 637 678 678 0 688
 677 0 0 +15 637 1057 0 678 631 0 17 688 0 642 688 688 0 678 677 0 0 -15 642 105
3 0 688 636 687 17 592 0 647 592 592 0 675 588 0 0 +15 647 1026 0 592 641 0 79 1
5 612 SDL/TYSA_COLOUR83 3 608 .529411764705882 .549019607843137 .549019607843137
 83 3 606 .529411764705882 .549019607843137 .549019607843137 17 157 0 237 435 63
 155 431 496 0 521 -17 435 0 237 54 157 58 521 442 0 0 +17 409 0 392 151 487 120
 99 406 0 0 -15 392 1559 0 487 387 0 17 151 0 392 483 409 149 122 396 0 476 -17
 487 0 392 409 483 97 142 381 0 0 -17 142 0 411 485 410 140 487 381 0 482 +17 48
5 0 411 93 142 143 482 486 0 689 -17 93 0 411 413 485 91 689 365 0 181 +17 689 0
 362 484 185 143 93 365 0 0 -15 362 1643 0 689 359 0 17 484 0 362 125 689 146 14
5 471 0 0 -17 185 0 362 689 125 91 180 186 0 0 -17 125 0 362 185 484 123 148 345
 0 180 -17 145 0 480 482 481 143 484 471 0 485 +17 181 0 178 180 420 91 413 416
 0 185 -15 571 477 0 502 311 411 17 502 0 571 502 502 0 690 218 0 0 +17 690 0 23
0 690 690 0 502 218 0 0 -15 230 494 0 690 225 691 15 691 495 0 692 225 0 17 692
 0 691 692 692 0 693 217 0 0 -17 693 0 565 693 693 0 692 217 0 0 +16 217 486 0 ?
693 507 210 211 0 0 1 15 565 465 0 693 222 673 81 1 558 1909 543 548 0 0 556 567
 694 83 3 570 .529411764705882 .549019607843137 .549019607843137 83 3 694 .52941
1764705882 .549019607843137 .549019607843137 81 1 549 1907 543 393 0 0 545 556 6
95 83 3 559 .529411764705882 .549019607843137 .549019607843137 81 1 545 1906 543
 520 0 0 541 549 696 83 3 695 .529411764705882 .549019607843137 .549019607843137
 83 3 696 .529411764705882 .549019607843137 .549019607843137 81 1 550 1903 543 5
42 0 0 553 544 697 83 3 555 .529411764705882 .549019607843137 .549019607843137 8
1 1 544 1904 543 190 0 0 550 541 698 83 3 697 .529411764705882 .549019607843137
 .549019607843137 83 3 698 .529411764705882 .549019607843137 .549019607843137 83
 3 554 .529411764705882 .549019607843137 .549019607843137 83 3 546 .529411764705
882 .549019607843137 .549019607843137 16 319 1441 0 ?45 31 527 316 0 0 1 40 9 37
4 0 1 9 830960934562345e-19 .3363779224197075 ??.0345 -.0083666002653407 .015 .0
345 -.0093666002653407 .01493365115039774 .0345 -.00968608497502234 .01487214718
01845 .0345 -.00990480906635113 .01480826491688386 .0345 -.0101182568233008 .014
7113137161552 .0345 -.01019726939908164 .0146546936000367 .0345 -.01026083289571
594 .01458013377797194 .0345 -.0102805106325042 .01452911900912744 .0345 -.01028
348190060198 .0145 41 1 375 L.0345 -.0083666002653407 .015 41 1 376 L.0345 -.010
28348190060198 .0145 40 6 356 0 1 6 3935413133123555e-20 .329959612792395 ??-.02
615817271905665 .024 -.015 -.02640817271905665 .024 -.01496466992205066 -.026620
54621946435 .024 -.0148646819095969 -.02674817208352665 .024 -.01474304450265562
 -.02681426379846675 .024 -.0146167669426478 -.0268328157299975 .024 -.0145 41 1
 357 L-.02615817271905665 .024 -.015 41 1 358 L-.0268328157299975 .024 -.0145 40
 6 347 0 1 6 934815513083964e-19 .37176087904287 ??.01715371679840845 .024 .028
 .0176225479821023 .024 .0279175428147476 .0178036778425103 .024 .02782187320880
44 .01792964512973185 .024 .02770095417402265 .0179844610061117 .024 .0275960934
038885 .018 .024 .0275 41 1 348 L.01715371679840845 .024 .028 41 1 349 L.018 .02
4 .0275 141 336 253 699 699 260 141 699 316 336 336 260 141 335 366 700 700 266
 141 700 259 335 335 266 40 6 321 0 1 6 .0002519294618093305 .372712506683426 ??
-.0345 -.01028348190060154 .0145 -.0345 -.01027268146211406 .01455544522225668 -
.0345 -.010236296073997 .0146151929529835 -.0345 -.01014318352281416 .0146955483
2960182 -.0345 -.00980369842429361 .01484076391633016 -.0345 -.00836660026534074
 .015 41 1 322 L-.0345 -.01028348190060154 .0145 41 1 323 L-.0345 -.008366600265
34074 .015 141 313 366 701 702 223 141 701 377 703 313 223 141 702 364 313 703 2
23 141 703 367 702 701 223 40 6 303 0 1 6 .0002519294618093335 .3727125066834195
 ??-.0345 .01028348190060154 -.0145 -.0345 .01027268146211408 -.0145554452222566
6 -.0345 .01023629607399698 -.0146151929529835 -.0345 .01014318352281416 -.01469
554832960182 -.0345 .0098036984242936 -.01484076391633016 -.0345 .00836660026534
074 -.015 41 1 304 L-.0345 .01028348190060154 -.0145 41 1 305 L-.0345 .008366600
26534074 -.015 141 291 350 704 704 282 141 704 295 291 291 282 141 289 367 705 7
05 277 141 705 249 289 289 277 40 6 278 0 1 6 3935413133122905e-20 .329959612792
3855 ??.02615817271905665 -.024 -.015 .02640817271905665 -.024 -.014964669922050
66 .02662054621946435 -.024 -.0148646819095969 .02674817208352665 -.024 -.014743
04450265562 .02681426379846675 -.024 -.0146167669426478 .0268328157299975 -.024
 -.0145 41 1 279 L.02615817271905665 -.024 -.015 41 1 280 L.0268328157299975 -.0
24 -.0145 40 6 267 0 1 6 4192818787710985e-20 .359988793900521 ??.02683281572999
75 -.024 .0145 .0268078941482979 -.024 .01463500633156102 .0267399794675499 -.02
4 .01475369674742552 .02660172302697775 -.024 .0148773066322064 .026375231517805
65 -.024 .01497362706822834 .02615817271905665 -.024 .015 41 1 268 L.02683281572
99975 -.024 .0145 41 1 269 L.02615817271905665 -.024 .015 40 6 261 0 1 6 3935413
13312251e-19 .3299596127923935 ??-.02615817271905665 -.024 .015 -.02640817271905
665 -.024 .01496466992205066 -.0266205462194643 -.024 .0148646819095969 -.026748
17208352665 -.024 .01474304450265562 -.02681426379846675 -.024 .0146167669426478
 -.0268328157299975 -.024 .0145 41 1 262 L-.02615817271905665 -.024 .015 41 1 26
3 L-.0268328157299975 -.024 .0145 40 6 254 0 1 6 50554694965429e-18 .38833542350
4331 ??.018 -.024 .0275 .01797600372992 -.024 .0276190986917179 .017913163389330
7 -.024 .0277220701874545 .01777148738127855 -.024 .0278433695725182 .0174934283
553918 -.024 .02795876983611015 .01715371679840845 -.024 .028 41 1 255 L.018 -.0
24 .0275 41 1 256 L.01715371679840845 -.024 .028 40 6 246 0 1 6 934815513083964e
-19 .3717608790428845 ??-.01715371679840845 -.024 .028 -.01762254798210235 -.024
 .0279175428147476 -.01780367784251035 -.024 .0278218732088044 -.017929645129731
9 -.024 .02770095417402265 -.0179844610061117 -.024 .0275960934038885 -.018 -.02
4 .0275 41 1 247 L-.01715371679840845 -.024 .028 41 1 248 L-.018 -.024 .0275 141
 239 346 706 707 232 141 706 355 708 239 232 141 707 340 239 709 232 141 709 337
 707 710 232 141 710 341 709 708 232 141 708 350 710 706 232 141 224 207 711 711
 212 141 711 211 224 224 212 40 21 220 0 1 21 .000483505601838607 .3666204189571
56 ??.018 0 -.0075 .0178435691112934 .002367919206919065 -.00711638662732034 .01
74371236938185 .0044661747935424 -.00602522055310231 .0169088025612941 .00617190
375355729 -.00426117402329751 .0164732905483674 .00725470182082413 -.00190244618
6080195 .01637365285715695 .00747686378860259 .000588649205115643 .0166055757150
959 .00694657146873317 .002827568713538605 .017056832248205 .00575017161975142 .
00481513513241376 .01758533695111795 .003841344076706195 .00644158953088089 .017
94420968371535 .001416099864718694 .00736509749922862 .0179701390586353 -.001036
389026046932 .0074280480468754 .0177032977107805 -.00325472735624264 .0067569778
6266359 .01723442560676465 -.00519370522891841 .00541067703666608 .0167087247632
8755 -.0066946633062986 .0033810476505514 .0163877758453544 -.00744585809980412
 .000899553865858702 .01643249109264265 -.00734664797647333 -.00150889479745286
 .0167638267548065 -.00655546432640997 -.0036436091262876 .0172687107700191 -.00
507854588848289 -.00551891036877512 .01776204579222985 -.00291714402708017 -.006
9094334590667 .01799498429946535 -.0004249000611864955 -.00748795432264405 .018
 167887743674545e-34 -.0075 41 1 221 H.018 167887743674545e-34 -.0075 19 16 30 0
 1 0 9 5 S0 141 19 346 712 712 6 141 712 240 19 19 6 74 20 14 2 0 0 2 604 0 0 0
 0 0 0 0 0 0 0 0 0 0 0 0 0 0 0 80 2 12 713 714 8004 0 0 0 0 3 5 0 0 0 FFTFFFFFFF
FFFF2 3 83 1 13 78e2 79 16 714 SDL/TYSA_DENSITY1 0 
